<svg xmlns="http://www.w3.org/2000/svg" viewBox="0 0 128.4 54.18"><title>Sororas</title><g id="Layer_2" data-name="Layer 2"><g id="Layer_1-2" data-name="Layer 1"><path d="M51.78,5.15l-1,.18-3,.78q-4.74,1.38-9.6,3a93,93,0,0,0-9.54,3.77l-1.8.93q-.9.45-1.74.93l-1.68,1a18.37,18.37,0,0,0-1.74,1.14,11.55,11.55,0,0,0-1.65,1.47,8.92,8.92,0,0,0-1.29,1.8,4.36,4.36,0,0,0-.54,2.12,2.2,2.2,0,0,0,.24.63,1.59,1.59,0,0,0,.75.6,8.08,8.08,0,0,0,1.71.51,28.81,28.81,0,0,0,3.24.42q2,0,4.08-.09t4.08-.27l4.2-.24c.48,0,1-.06,1.47-.06h1.47A31.79,31.79,0,0,1,43,24a12.7,12.7,0,0,1,3.48.87,7,7,0,0,1,2.67,1.92,4.91,4.91,0,0,1,1.08,3.31l-.06,1v.18a7.3,7.3,0,0,1-1.41,3.73A17.39,17.39,0,0,1,46,37.89a21.08,21.08,0,0,1-2.76,2l-1.59,1a55.22,55.22,0,0,1-5.61,2.95q-2.91,1.32-5.91,2.4t-6,2q-3,.93-5.82,1.77L12.3,51.66l-4,1L2.16,54.12a.41.41,0,0,0-.18,0,.42.42,0,0,1-.18,0A1.79,1.79,0,0,1,0,52.32a1.89,1.89,0,0,1,.36-1.11,1.53,1.53,0,0,1,1-.63l1.2-.18,3-.48,2-.36,2-.36q1-.18,2-.42l2-.42Q19.68,47,25.53,45.3A100.39,100.39,0,0,0,37.14,41a40.3,40.3,0,0,0,3.72-1.86,26.62,26.62,0,0,0,3.54-2.37,15.11,15.11,0,0,0,2.7-2.73,6.14,6.14,0,0,0,1.26-3v-.24a.35.35,0,0,0,.06-.24v-.42a3.4,3.4,0,0,0-.63-2.1,4.54,4.54,0,0,0-1.68-1.35A9.9,9.9,0,0,0,43.65,26a26.77,26.77,0,0,0-3-.39q-4.14,0-8.16.36l-4.14.3q-1.56.12-3.18.15T22,26.4a12.82,12.82,0,0,1-2.34-.33,6.29,6.29,0,0,1-2-.84,4.17,4.17,0,0,1-1.95-3.8,6.18,6.18,0,0,1,.57-2.69,9.88,9.88,0,0,1,1.29-2.07A9.36,9.36,0,0,1,19,15.27a11.8,11.8,0,0,0,.93-.78,30.14,30.14,0,0,1,3.45-2.72,40.66,40.66,0,0,1,3.87-2.33q2-1,3.9-1.92T34.68,6q2.88-1.32,5.88-2.42l5.82-2.13,1-.33a6.45,6.45,0,0,0,1-.39L49.92.3l.54-.18A3.39,3.39,0,0,1,51.24,0,2.58,2.58,0,0,1,53,.72a2.41,2.41,0,0,1,.78,1.85,2,2,0,0,1-.57,1.56A6.72,6.72,0,0,1,51.78,5.15Z"/><path d="M60.54,34.5l.12.18.12,0a.26.26,0,0,0,.12,0,1.48,1.48,0,0,0,.66-.24l.72-.48.93-.93a6.4,6.4,0,0,0,1-1.35l.3-.42a1.69,1.69,0,0,1,.33-.66,2.34,2.34,0,0,0,.39-.78l.48-.9a1.12,1.12,0,0,1,1.14-.78,1.14,1.14,0,0,1,.9.42,1.36,1.36,0,0,1,.36.9.84.84,0,0,1-.06.36l-.18.24q-.12.24-.27.48t-.33.48l-1,1.44-1,1.38a15.72,15.72,0,0,1-1.56,1.8l-.48.42-.24.21-.3.21-.6.36a7.41,7.41,0,0,1-.72.24,3.48,3.48,0,0,1-1,.12l-.69-.15C59.53,37,59.4,37,59.4,37a11,11,0,0,1-1,1.68q-.54.72-1.2,1.56l-.84.78a5.31,5.31,0,0,1-.93.6,2.59,2.59,0,0,1-1.23.3h-.24A2.94,2.94,0,0,1,52,41.1a3,3,0,0,1-.93-2.46,13.11,13.11,0,0,1,.18-2.16l.36-1.56.12-.48.66-1.92.84-1.92L54,29.1a3.78,3.78,0,0,1,.87-1.26l.42-.48.15-.27a1.46,1.46,0,0,1,.21-.27l.54-.42,1-.6a2.91,2.91,0,0,1,1.5-.3.85.85,0,0,1,.36.06h.3a2.23,2.23,0,0,1,1.47.81,2.35,2.35,0,0,1,.57,1.53v.24l-.06.3a3.13,3.13,0,0,1,.15.69c0,.22,0,.43,0,.63v.66q0,.3,0,.6t-.09.6l-.24,1.08q-.12.48-.27.9l-.33.9ZM56,32.16a12,12,0,0,0-1,1.5q-.42.78-.78,1.62l-.24.84q-.24.84-.39,1.41a2.8,2.8,0,0,0-.09,1.05,3.08,3.08,0,0,0,.06.6c0,.2.08.3.12.3l.42.06a4.6,4.6,0,0,0,.72-.42l.54-.54a.66.66,0,0,1,.24-.3l.66-1.08q.3-.66.6-1.38a6.6,6.6,0,0,0,.42-1.44,3.19,3.19,0,0,1-.42-1.14,6.71,6.71,0,0,1-.12-1.2l-.12-.78a3.91,3.91,0,0,0-.36.42A3.14,3.14,0,0,0,56,32.16Z"/><path d="M65.7,29l3.54-7.38v.06l.18-.42a2.12,2.12,0,0,1,2-1.26,2,2,0,0,1,1.59.69,2.35,2.35,0,0,1,.57,1.53,1.59,1.59,0,0,1-.06.48l-.12.54-1,2.34-1,2.34q-.48,1.2-1,2.4t-.93,2.4l-.24.54a23.29,23.29,0,0,1,2.34-3Q72.9,28.8,74,27.66l1.74-1.74h.12a2.16,2.16,0,0,1,1.5-.54A2.33,2.33,0,0,1,79,26a2,2,0,0,1,.72,1.59,1.94,1.94,0,0,1-.12.72,3.5,3.5,0,0,1-.27.54,2,2,0,0,1-.24.33l0,0a1.69,1.69,0,0,0-.3.36h.06l-.12.06a7.39,7.39,0,0,0-1.14,1.47q-.48.81-.81,1.5A17.61,17.61,0,0,0,76,34.32a.24.24,0,0,0-.06.18,4.78,4.78,0,0,0,2.37-1,6.61,6.61,0,0,0,2.31-2.64l.72-1.44.12-.36a1.66,1.66,0,0,0,.42-.69Q82,28,82.68,28a1.22,1.22,0,0,1,.9.36,1.15,1.15,0,0,1,.36.84,1.79,1.79,0,0,1-.06.42.77.77,0,0,1-.18.36l-.42.6-1,1.38q-3.36,4.56-6.78,4.56l-.3-.06a1,1,0,0,1-.72-.36,2.07,2.07,0,0,1-.48-.66L73.8,35a4.1,4.1,0,0,1-.06-.78v-.6a51.09,51.09,0,0,0-4.08,4.2,30.11,30.11,0,0,0-3.42,4.8,1,1,0,0,1-1,.72,1.09,1.09,0,0,1-.75-.3.89.89,0,0,1-.33-.66.24.24,0,0,1,0-.15.12.12,0,0,0,0-.09V42A30.26,30.26,0,0,1,65,36.75q.63-2.55,1.29-5.07l.3-1a1.22,1.22,0,0,1-1-1.26A1.59,1.59,0,0,1,65.7,29Zm10,5.52.06.06.06-.06Z"/><path d="M87.6,34.5l.12.18.12,0a.26.26,0,0,0,.12,0,1.48,1.48,0,0,0,.66-.24l.72-.48.93-.93a6.4,6.4,0,0,0,1-1.35l.3-.42a1.69,1.69,0,0,1,.33-.66,2.34,2.34,0,0,0,.39-.78l.48-.9a1.12,1.12,0,0,1,1.14-.78,1.14,1.14,0,0,1,.9.42,1.36,1.36,0,0,1,.36.9.84.84,0,0,1-.06.36l-.18.24q-.12.24-.27.48t-.33.48l-1,1.44-1,1.38a15.72,15.72,0,0,1-1.56,1.8l-.48.42-.24.21-.3.21-.6.36a7.41,7.41,0,0,1-.72.24,3.48,3.48,0,0,1-1,.12l-.69-.15c-.26-.06-.39-.11-.39-.15a11,11,0,0,1-1,1.68q-.54.72-1.2,1.56L83.4,41a5.31,5.31,0,0,1-.93.6,2.59,2.59,0,0,1-1.23.3H81a2.94,2.94,0,0,1-1.89-.78,3,3,0,0,1-.93-2.46,13.11,13.11,0,0,1,.18-2.16l.36-1.56.12-.48.66-1.92.84-1.92L81,29.1a3.78,3.78,0,0,1,.87-1.26l.42-.48.15-.27a1.46,1.46,0,0,1,.21-.27l.54-.42,1-.6a2.91,2.91,0,0,1,1.5-.3.85.85,0,0,1,.36.06h.3a2.23,2.23,0,0,1,1.47.81,2.35,2.35,0,0,1,.57,1.53v.24l-.06.3a3.13,3.13,0,0,1,.15.69c0,.22,0,.43,0,.63v.66q0,.3,0,.6t-.09.6l-.24,1.08q-.12.48-.27.9l-.33.9ZM83,32.16a12,12,0,0,0-1,1.5q-.42.78-.78,1.62l-.24.84q-.24.84-.39,1.41a2.8,2.8,0,0,0-.09,1.05,3.08,3.08,0,0,0,.06.6c0,.2.08.3.12.3l.42.06a4.6,4.6,0,0,0,.72-.42l.54-.54a.66.66,0,0,1,.24-.3l.66-1.08q.3-.66.6-1.38a6.6,6.6,0,0,0,.42-1.44,3.19,3.19,0,0,1-.42-1.14,6.71,6.71,0,0,1-.12-1.2l-.12-.78a3.91,3.91,0,0,0-.36.42A3.14,3.14,0,0,0,83,32.16Z"/><path d="M92.76,29,96.3,21.6v.06l.18-.42a2.12,2.12,0,0,1,2-1.26,2,2,0,0,1,1.59.69,2.35,2.35,0,0,1,.57,1.53,1.59,1.59,0,0,1-.06.48l-.12.54-1,2.34-1,2.34q-.48,1.2-1,2.4t-.93,2.4l-.24.54a23.29,23.29,0,0,1,2.34-3q1.32-1.44,2.46-2.58l1.74-1.74H103a2.16,2.16,0,0,1,1.5-.54A2.33,2.33,0,0,1,106,26a2,2,0,0,1,.72,1.59,1.94,1.94,0,0,1-.12.72,3.5,3.5,0,0,1-.27.54,2,2,0,0,1-.24.33l0,0a1.69,1.69,0,0,0-.3.36h.06l-.12.06a7.39,7.39,0,0,0-1.14,1.47q-.48.81-.81,1.5a17.61,17.61,0,0,0-.69,1.71.24.24,0,0,0-.06.18,4.78,4.78,0,0,0,2.37-1,6.61,6.61,0,0,0,2.31-2.64l.72-1.44.12-.36a1.66,1.66,0,0,0,.42-.69q.12-.39.78-.39a1.22,1.22,0,0,1,.9.36,1.15,1.15,0,0,1,.36.84,1.79,1.79,0,0,1-.06.42.77.77,0,0,1-.18.36l-.42.6-1,1.38q-3.36,4.56-6.78,4.56l-.3-.06a1,1,0,0,1-.72-.36,2.07,2.07,0,0,1-.48-.66l-.18-.48a4.1,4.1,0,0,1-.06-.78v-.6a51.09,51.09,0,0,0-4.08,4.2,30.11,30.11,0,0,0-3.42,4.8,1,1,0,0,1-1,.72,1.09,1.09,0,0,1-.75-.3.89.89,0,0,1-.33-.66.24.24,0,0,1,0-.15.12.12,0,0,0,0-.09V42a30.26,30.26,0,0,1,.81-5.25q.63-2.55,1.29-5.07l.3-1a1.22,1.22,0,0,1-1-1.26A1.59,1.59,0,0,1,92.76,29Zm10,5.52.06.06.06-.06Z"/><path d="M114.6,27.9h-.12V28l-.42.12-.6.3-.6.48-.87.87a7.81,7.81,0,0,0-.87,1l-1,1.44a36.12,36.12,0,0,0-1.62,3.3l-.36.84a7.42,7.42,0,0,0-.54,1.74l-.24.84a8.57,8.57,0,0,0-.18.93,6,6,0,0,0-.06.75v.24l.48-.42a2.33,2.33,0,0,1,.24-.39c.08-.1.16-.21.24-.33l.42-.78a17.79,17.79,0,0,0,1.14-2.52q.48-1.32.9-2.7l.18-.9a.17.17,0,0,1,.06-.12l.06-.3v-.12a.17.17,0,0,1,.06-.12v-.24l.3-.48a1.73,1.73,0,0,1,.69-.81,1.89,1.89,0,0,1,1-.27,1.78,1.78,0,0,1,1.47.63,2.11,2.11,0,0,1,.51,1.35,1.85,1.85,0,0,1-.06.54v.18l-.18.6,2.22-3.6a9.36,9.36,0,0,0,.72-1.14,1.26,1.26,0,0,1,1.2-.66,1.09,1.09,0,0,1,.87.39,1.32,1.32,0,0,1,.33.87,1.08,1.08,0,0,1-.18.66l-1.5,2.52-2.94,5L114,40.26a1.23,1.23,0,0,1-1.2.84,1.13,1.13,0,0,1-1.08-.54l-.3-.54-.18-.36a.59.59,0,0,1-.06-.27.6.6,0,0,0-.06-.27l-.66,1-.3.36-.3.48a2.88,2.88,0,0,1-.63.84l-.87.78-.54.42-.42.12c-.08,0-.12,0-.12.06h-.18a3.22,3.22,0,0,1-1-.15,1.37,1.37,0,0,1-.78-.69l-.18-.42a3.32,3.32,0,0,1-.18-.63,3.6,3.6,0,0,1-.06-.63c0-.4,0-.75,0-1.05a10.43,10.43,0,0,1,.15-1.11l.18-1a4.87,4.87,0,0,1,.21-.93,8.69,8.69,0,0,0,.27-1l.24-1a42.51,42.51,0,0,1,1.74-4.32,43.65,43.65,0,0,1,2.16-4l1.62-1.8.78-.6.18-.12.12-.06a2.25,2.25,0,0,1,1.32-.42,2.36,2.36,0,0,1,1.68.69,2.32,2.32,0,0,1-1,3.93Z"/><path d="M120.42,29.82a10.73,10.73,0,0,0,.42,3,26.21,26.21,0,0,0,1,2.91q.54-.78,1.29-2t1.53-2.37q.78-1.17,1.47-2t1.05-.84a1.13,1.13,0,0,1,.87.36,1.14,1.14,0,0,1,.33.78,2.4,2.4,0,0,1-.33,1q-.33.63-.78,1.32t-.93,1.35q-.48.66-.78,1.14-.66,1-1.35,2t-1.41,1.92a2,2,0,0,1,.06.48v.48a6.47,6.47,0,0,1-1.32,4,12,12,0,0,1-3.24,2.94l-.66.42a.45.45,0,0,0-.27.12.45.45,0,0,1-.27.12l-.18.12a1.92,1.92,0,0,1-.54.12,1.25,1.25,0,0,1-.81-.33,1.09,1.09,0,0,1-.39-.87,1,1,0,0,1,.12-.42v-.06a12.41,12.41,0,0,1,1.2-2.28q.72-1.08,1.44-2.1l1.56-2.28-.3-.72-.36-.6A31.23,31.23,0,0,1,117,33.63a12.24,12.24,0,0,1-.84-4.53,7.62,7.62,0,0,1,.36-2.16l.3-.6a6.3,6.3,0,0,1,1-1.17,2.77,2.77,0,0,1,2-.69,3.27,3.27,0,0,1,1.62.48l.84.6a1.5,1.5,0,0,1,.6,1.32,2,2,0,0,1-.66,1.38l-1.74,1.26A.67.67,0,0,0,120.42,29.82Zm.24-1.08.06-.12a.05.05,0,0,0-.06.06l-.06.12Z"/></g></g></svg>
