<svg xmlns="http://www.w3.org/2000/svg" viewBox="0 0 1000 236.71"><defs><style>.cls-1{fill:#ff00ff;}</style></defs><title>Asset 1</title><g id="Layer_2" data-name="Layer 2"><g id="svg2"><path id="path2987" class="cls-1" d="M193.7,235.47c-5-.34-13.34-.84-18.6-1.11-18.74-1-30.32-1.68-31.89-1.95-.87-.15-4.34-.46-7.7-.69s-6.94-.59-8-.81a51.37,51.37,0,0,0-5.31-.64,95.19,95.19,0,0,1-16.58-2.51,10.41,10.41,0,0,0-3.74-.53c-.29.17-.37.06-.17-.24s-1.52-.62-5.48-.77a46.45,46.45,0,0,1-6.62-.54,3.23,3.23,0,0,1-1.09-2.19c-.34-2.12-.9-2.44-6-3.48A61.15,61.15,0,0,1,76,218.2c-1.74-.61-3.79-1.25-4.56-1.42-2.19-.48-2.16-1.65.13-3.89s4.3-3.33,8.15-4.21c2.5-.57,5.92-2.95,5.95-4.13,0-.4-2.28-1.17-5.54-1.87-.87-.19-3.74-.53-6.36-.76A51.54,51.54,0,0,1,66,200.65a45.31,45.31,0,0,0-9.44-1c-7-.18-10-1-10.45-2.9-.15-.64-1.46-1.65-3.33-2.57-1.69-.83-3-1.71-2.79-2s0-.33-.41-.21c-1.73.55-4.3-.67-5.21-2.47-1-2-.52-3.78,1-3.74.43,0,.79-.16.79-.38s1.63-.43,3.6-.46,3.68-.29,3.78-.57.64-.5,1.18-.48a1.71,1.71,0,0,0,1.33-.5,1.17,1.17,0,0,1,.87-.51c.29,0,.41.2.26.43s.43.42,1.29.43,1.57-.27,1.58-.68.25-.54.54-.36.53.11.54-.16c0-.82-1.36-1.16-3.81-.92a15.37,15.37,0,0,1-4.67-.45c-1.31-.37-2.74-.75-3.17-.84a10.57,10.57,0,0,1-1.72-.6,3.62,3.62,0,0,0-2-.17c-1.36.32-1.8-.42-.75-1.24.44-.35.81-.43.81-.17s.18.23.4-.06c.68-.88,2.83-1.85,2.82-1.26a.55.55,0,0,0,.55.55c.31,0,.45-.18.31-.41-.35-.61,3.92-.59,5,0a1.2,1.2,0,0,0,1.51-.08c.72-.68,2.86-.91,2.44-.26s1.22.51,1.9-.28c.49-.56,1-.62,2-.22,1.68.69,2.26.69,1.25,0-.59-.41-.32-.52,1.08-.45a46.63,46.63,0,0,0,5.87-.41c2.2-.28,4.65-.52,5.43-.54,2.33-.06,1.7-1.85-1.4-4-1.78-1.25-2.62-2.17-2.41-2.66s.53-.57.9-.26a1.9,1.9,0,0,0,1.67.09,10.86,10.86,0,0,1,3.06-.39A2.91,2.91,0,0,0,71,166.12c1.21-1.74,1.38-2.73.71-4.05-.29-.58-.31-.9,0-.73s.82-.56,1.23-1.63a6.41,6.41,0,0,1,1.35-2.32c.33-.21-.36-.41-1.53-.45-1.57-.05-1.92-.2-1.32-.57s.39-.51-.92-.55a7.21,7.21,0,0,1-2.65-.56c-.5-.28-3.11-1.45-5.8-2.6-5.39-2.31-8.52-2.88-20-3.66-8.78-.6-9.77-.73-11.14-1.51s-8.64-2.08-13.24-2.35a16.49,16.49,0,0,1-6.09-1.38,21.45,21.45,0,0,0-5-1.59c-2.9-.47-6.6-1.88-6.59-2.52,0-.22,1.4-.82,3.09-1.33,2.61-.78,4.81-.89,14.26-.68,7.54.17,11.84,0,13.21-.38,2-.61,3.9-.47,8.77.65a61.71,61.71,0,0,0,7.92.76,28.15,28.15,0,0,1,6.66.82,5,5,0,0,0,3,.22,9.91,9.91,0,0,1,2.42-.23c.95.25,17.15.5,19,.29,3.06-.36,6.9-.58,12.19-.7,2.74-.06,5.25-.36,5.58-.67.58-.55-.4-.85-2.15-.67a.55.55,0,0,1-.65-.54c0-.34-.33-.49-.75-.34a1.4,1.4,0,0,1-1.4-.54c-.51-.65-.73-.67-1.09-.13s-.45.55-.45,0-.36-.59-1-.41a1,1,0,0,1-1.34-.65c-.18-.52-.08-1,.24-1.12.82-.25,2.19-1.62,2.21-2.21,0-.82-2.06-2.74-2.61-2.42-.28.17-.37-.05-.19-.48.24-.59,0-.71-.88-.5s-1.13.11-.85-.58c.52-1.27-.59-1.71-1.51-.59-.5.61-.68.68-.5.17.32-.88-2.13-2.37-3-1.84-.31.18-.38.06-.15-.28s.14-.61-.17-.62-.57.34-.58.78c0,1.13-1.08,1-1.1-.16,0-.79-.08-.77-.47.12a2.54,2.54,0,0,0-.3,1.35c.09.16-.31.32-.87.34-1.24.06-1.31-.36-.17-1.15.66-.46.19-.57-2.16-.5-1.77.05-2.87-.11-2.68-.4s-.16-.38-.75-.24-1.07,0-1.06-.37-.27-.46-.62-.26-.5.07-.2-.64a10.62,10.62,0,0,0,.57-1.73c.24-1.23,1.6-1.56,3.26-.78.87.41,1.28.76.91.77-1.31.05-.67,1.09.69,1.13,1,0,1.31-.18,1.11-.75a1,1,0,0,1,.26-1.11c.35-.2.3-.63-.13-1.18-.57-.73-.54-.82.17-.53a1.93,1.93,0,0,0,1.6-.18c.6-.41.56-.46-.18-.24s-.88.05-.55-1.16a3.86,3.86,0,0,1,.83-1.71c.78-.49,0-2.59-.89-2.29-.56.2-.73,0-.59-.72s-.09-1-.87-.91c-.59,0-.76,0-.39-.19s.56-.48.41-.74.22-.78.82-1.18.93-.88.75-1.08.12-.35.68-.34c.84,0,.88-.07.25-.5s-.91-.31-1.17.1-.55.46-.73.27c-.33-.35.71-2.58,1.43-3.05s1.32-2.81.75-2.48c-.27.16-.76-.17-1.09-.72-.53-.9-.44-1,.85-.88.91.08,1.4-.11,1.33-.53s.06-.64.28-.6c1.09.2,1.73-.1,1.75-.82,0-.44.27-.79.58-.78s.43-.21.28-.48,0-.61.39-.75.31-.28-.25-.32-.93-.25-.92-.47-.83-.39-1.85-.37-1.72-.17-1.55-.43-.2-.48-.82-.5-1-.26-.78-.55.06-.53-.28-.54-.47-.38-.26-.88c.3-.72.22-.76-.47-.21s-.82.51-.81-.15A1.34,1.34,0,0,1,75.2,91.9a1.42,1.42,0,0,0,1.1-1.37c0-.95-.2-1.08-1.44-.85s-1.3.17-.54-.29.85-.65-.18-1.9a3.7,3.7,0,0,0-1.9-1.36c-1.6,0-.15-.56,2-.72,1.3-.1,2.09,0,1.9.33s-.08.5.21.5a1.05,1.05,0,0,0,.81-.42,3.14,3.14,0,0,1,2-.29,4.56,4.56,0,0,0,2.38-.32c.39-.29.76-.25,1,.1s.66.4,1.34.06a5.19,5.19,0,0,1,2.24-.43A55,55,0,0,0,95,84.36a61.59,61.59,0,0,1,8-.81c.93,0,.9-2.51,0-3.25a3.23,3.23,0,0,1-.86-2.09c-.05-.92-.33-1.39-.74-1.24s-.54-.06-.37-.48-.26-.85-1.29-1.1c-1.74-.43-3-1.62-2.45-2.4.18-.28-.14-.39-.75-.25-.76.18-1.07,0-1-.66a1.39,1.39,0,0,0-1-1.22c-1.18-.34-1.35-1-.41-1.55.39-.23.47-.13.22.25s-.21.59,0,.55c1.14-.17,1.77.17,1.75.94,0,1.1,1.26.7,1.52-.46.11-.49,0-.87-.24-.83-1.47.22-2.3-.22-2.27-1.2,0-.6.26-.94.55-.75s.54-.15.55-.75.36-1.09.77-1.08a1.29,1.29,0,0,0,1.08-.8c.19-.45.12-.69-.16-.53s-.59,0-.71-.39-.16-.26-.1.26-.1.93-.37.92a.58.58,0,0,1-.47-.65c0-.35-.33-.18-.76.38-.57.74-.62,1.11-.18,1.4s.13.35-.5.28c-1-.1-1.63-1.51-.69-1.48.21,0,.54-.7.74-1.58.29-1.26.64-1.58,1.7-1.55.74,0,1.35-.21,1.36-.5s.49-.52,1.08-.5c1.13,0,1.41.81.49,1.35s-.08,1.2,1.59,1.1c2.18-.13,2.71-.71.76-.83-1.52-.09-1.52-.1-.21-.44l1.34-.34-1.18-.68c-1.36-.79-1.54-1.72-.32-1.69.46,0,.68.26.49.54s-.09.53.22.54.58-.46.59-1,.38-1.05.93-1c.78,0,.77-.08-.11-.76s-1.07-.65-1.3-.11-.67.53-1.27.3c-.93-.36-.93-.43-.06-1.26A3,3,0,0,1,102.5,56c.69,0,1-.62.87-1.71,0-.22.32-.39.78-.38s.7-.21.54-.48c-.38-.65.64-1.25,1.35-.78.38.25.35.59-.09,1.09s-.47.74,0,.75c.62,0,.81-.62.67-2.32-.11-1.32.91-1.88,3.36-1.83,1.18,0,1.95-.2,1.88-.55s1-.57,3.07-.53a10.23,10.23,0,0,0,3.87-.45,3.31,3.31,0,0,1,2.22-.16c1.1.25,1.75.09,2.26-.54s.5-.72.23-.5-1.13-.65-1.93-1.91-1.45-2.09-1.46-1.82-.48,0-1.05-.51a3.05,3.05,0,0,1-1-1.57c0-.32.26-.16.55.36a1.91,1.91,0,0,0,1.4,1c.65,0,.73-.14.3-.59a1.41,1.41,0,0,1-.26-1.38c.26-.63.4-.64.75,0s.44.44.45-.34c0-1.33-1.19-3.07-1.78-2.57-.24.21-.26.08,0-.28a.68.68,0,0,1,.89-.35c.27.18.49.08.5-.21a1.14,1.14,0,0,0-.49-.86c-.67-.44,0-2,1.22-2.81.55-.37.85-.93.67-1.24s.11-.42.93-.15c1,.34,1.14.28.61-.3-.79-.87-.81-2.48,0-2.71.53-.16.67-1.08.51-3.22a1.11,1.11,0,0,0-1.18-1c-.64,0-.86-.2-.53-.41.84-.54,1.38-2.14.85-2.48-.25-.16-.57,0-.71.36s-.39.53-.56.37-.08-.63.19-1c.41-.63.66-.59,1.56.27s1.07,1,1.14,0c0-.56.18-.71.32-.34a1,1,0,0,0,.8.69c.3,0,.42-.35.26-.79s-.11-.76.09-.71a6,6,0,0,0,1.9-.49,3.21,3.21,0,0,1,2-.27c.26.17.49,0,.49-.28s.23-.45.5-.28a.59.59,0,0,0,.81-.18,1.59,1.59,0,0,1,1.25-.47c1.47,0,2.38-.23,4.84-1.43a11.15,11.15,0,0,1,3-1.11,1.06,1.06,0,0,0,1-.62c.25-.69,5.22-.9,5.2-.22,0,.22.65.23,1.46,0a19.22,19.22,0,0,1,7.43.37c1.27.31,1.66.16,2.26-.9a2.48,2.48,0,0,0,.43-1.8c-.43-.74-4-1.33-9.88-1.63a23,23,0,0,1-6.21-.93,4,4,0,0,0-1.58-.61,22.65,22.65,0,0,1-2.35-.05c-1.45-.08-2-.38-2.18-1.18s0-1.07,1.16-1.05c1.35,0,1.37,0,.41-.78s-.49-.77,3.87-.55c2.68.14,4.87.39,4.87.57s.65.27,1.46.19c3.61-.33,9.12-.64,11.16-.64,1.22,0,2.11-.19,2-.42s.18-.45.72-.48a8.79,8.79,0,0,0,3.53-.6,6.27,6.27,0,0,0,2-2.38c1.09-2,2.83-3.13,3.15-2.06.13.41.42.4,1,0s.93-.44,1.15-.1c.36.56,8.95.79,9.51.25.18-.17.61-.07.94.22.65.57,3.86.56,4.85,0a4.39,4.39,0,0,1,2.41.21,99.34,99.34,0,0,0,11.63,1.07c5.4.29,12.92.72,16.72,1C239.79,4.67,246,5,258.78,5.24c10,.21,14,.47,13.95.89s.18.44.7,0c.72-.57,3.92-.63,13.15-.28,2.78.11,5.29.18,5.58.16l6.4-.39a41,41,0,0,1,6.74-.06c.48.16,1,.1,1.17-.15S308.75,5,311.18,5a62.74,62.74,0,0,0,7.48-.46A97.22,97.22,0,0,1,328.52,4c3.74,0,8.48-.11,10.53-.17a14.46,14.46,0,0,1,4.71.43c.54.3.85.32.7.05s1.95-.41,4.87-.31a30.43,30.43,0,0,0,7-.41c1.42-.44,2-.44,2.25,0s.38.44.4,0,1.51-.59,3.88-.61c5.28,0,21.35.32,24.6.54,1.46.1,4.81.08,7.45,0,6.36-.28,16.24-.19,16.23.15s2.55.29,6.82-.33a18.3,18.3,0,0,1,5.33-.15c1.84.53,5.41.76,5.42.34,0-.18.67-.31,1.47-.28,14.88.39,43,.11,43.91-.44.23-.13.41,0,.4.23s.71.38,1.58.28a5.83,5.83,0,0,1,2.52.22c1.17.53,3.3.74,3,.31-.11-.18,3.92-.17,9,0s9.15.39,9.15.44a30.79,30.79,0,0,0,3.32.28c1.83.1,3.33,0,3.33-.15s.84-.13,1.86.13,2,.3,2.09.1,2.41-.3,5.06-.21c2.87.09,4.83-.06,4.84-.38s.18-.29.4.06c.47.73,4.49.79,5,.08q.4-.52.4,0c0,.29.89.53,2,.52a10.44,10.44,0,0,1,3.22.48,2.85,2.85,0,0,0,2.21,0c1-.48,3.19-.63,14.68-1,2.93-.09,7.73-.31,10.66-.5s9.52-.27,14.64-.17,10.27,0,11.45-.18,7.64-.25,14.37-.13c15.81.28,27.7.15,32.44-.35l9.91-1c3.38-.35,9-.84,12.54-1.09s7.48-.54,8.8-.66a43.8,43.8,0,0,1,12.28.59c2.24.47,9.06.87,19,1.12,8.54.21,15.69.49,15.9.61s9.22.61,20,1.08,21.58,1,23.92,1.21c13.12,1.11,23.08,1.56,44.92,2.06,3.07.07,6.42.22,7.44.34,2.21.26,12.44,1,22,1.56C849.39,10,857.14,10.4,871.14,11c8.48.34,16.25.77,17.27,1s3.77.47,6.1.64c4.33.31,9.27,1,9.9,1.42a25.74,25.74,0,0,0,4,.59c2,.2,5.06.63,6.8,1s3.89.7,4.77.85,3.53.81,5.91,1.49a39.49,39.49,0,0,0,5.42,1.26c.61,0,1.1.23,1.1.47s.29.45.65.47c3.59.12,12.18,1.16,13.52,1.63a6.64,6.64,0,0,1,2.79,2.21c1.18,1.75,4.36,3.54,7.3,4.1a79.53,79.53,0,0,0,11.38,1.35c.75-.06,1.36.14,1.35.46s.15.42.35.22.86.13,1.45.72a29.76,29.76,0,0,0,4.63,3,15.07,15.07,0,0,0,7.32,2.27c4,.33,4.69.8,4.25,2.85-.28,1.31-2.43,2.33-4.76,2.27a2.08,2.08,0,0,0-1.56.49,3.26,3.26,0,0,1-2.15.48c-2.8-.07-7.21.9-7.21,1.59,0,1.13,4,2.62,8,3,2.15.18,7.13.55,11.07.82,8,.55,8.8.72,9.2,1.83.58,1.64-6.86,7-12.93,9.27-2,.74-3,1.5-3.63,2.77-1.17,2.18-.66,3.24,2.49,5.21,1.22.76,2.22,1.75,2.21,2.2a2.78,2.78,0,0,0,.76,1.63c1.21,1.28.88,2.56-.92,3.56a28.55,28.55,0,0,0-4,3c-2,1.76-2.76,2.12-4.95,2.23-1.93.1-2.86.43-3.53,1.28-.51.63-.81,1.34-.67,1.57s0,.41-.3.41-.84.52-1.2,1.17-.47,1-.24.82c.56-.5,2,1.08,1.57,1.73-.2.3.06.42.62.28s0,.21-1.19.76a10.78,10.78,0,0,1-3.85,1,10.59,10.59,0,0,0-3.07.45c-1,.36-1.38.31-1.38-.17s-.25-.25-.55.25c-1,1.7-.09,3.58,2.55,5A10.48,10.48,0,0,1,971,96.38a6.09,6.09,0,0,0,2.87,2c4.26,1.4,4.86,4.17,1.1,5.14-2.33.6-3.48,2.3-2.83,4.16.34,1,.32,1.41-.06,1.4-1,0-2,1.28-1.93,2.59s0,1.32-4.53,2.24a8.63,8.63,0,0,0-3,1.63,19.28,19.28,0,0,1-3.11,2.08c-.82.4-1.49,1.07-1.5,1.49,0,1-2,2-4.26,2.15-2.52.2-3.55.83-3.7,2.23-.12,1.17,1.92,3.72,3,3.75.66,0,3.6,3.15,3.58,3.82,0,.91-2,1.49-5.68,1.69a61.28,61.28,0,0,0-6.36.7c-2.44.45-11.13,1.71-13.11,1.89-.83.08-1.24,2-.43,2,.24,0,.19.45-.12,1s-.39,1.15-.2,1.36c.67.7.25,7.45-.5,8.2a6.23,6.23,0,0,1-3.17.81c-2.18.09-3.63.89-3.15,1.73.09.16-.17.6-.59,1s-.76.49-.75.27-.28-.12-.63.22a.83.83,0,0,1-1.33,0c-.5-.44-1.12-.43-2.3,0-2.71,1-1.87,2.67,1.78,3.42,4.08.84,5,1.23,4.35,1.83a63.31,63.31,0,0,1-8.41.27c-9.47,0-10.57.37-11.44,4.25a15.15,15.15,0,0,1-1.82,4.25,13.47,13.47,0,0,0-2.22,5.49c0,.29-.84.59-1.83.66-1.23.09-1.88.44-2.09,1.14s-.5.88-.76.71-.47-.06-.48.24-1.11,1.15-2.46,1.89c-3.81,2.1-4.38,3.89-1.6,5,1.3.53,1.35.93.42,3.16-.69,1.63,1,2.73,6.74,4.3C904.08,190,905.62,191,904,192c-1,.63-8.21-.17-19.55-2.18-5.14-.91-7.3-.55-8.5,1.41s-2.41,2.51-6,2.7c-2.93.16-5.69,1.54-5.72,2.86,0,.81,2.32,1.64,5,1.78,2,.1,4.44,1.57,3.24,2a5.27,5.27,0,0,0-1.49,1c-.44.42-.8.63-.8.45,0-.64-3.26,1.29-3.92,2.32-.83,1.28-3.63,3-4.73,2.9-2.74-.23-6.39,0-6.4.47,0,.82,2.72,3.26,3.3,2.92.29-.17.36-.05.15.26a.66.66,0,0,0,.17.92.63.63,0,0,1,.21.86,1.33,1.33,0,0,0,.31,1.32c1,1.27,0,1.76-4.09,1.93a52.54,52.54,0,0,0-6.13.63c-1.32.26-5.77.9-9.88,1.42a85.1,85.1,0,0,0-10.46,1.9,22.7,22.7,0,0,1-6.28.86,32.16,32.16,0,0,0-7.17.9c-3.66.93-4.91.94-22.49.23-10.24-.42-20.64-.91-23.13-1.1-6.47-.5-14.43-1.28-15.52-1.52-.51-.11-6.74-.52-13.83-.9-10.14-.54-14.43-.55-20.09,0-4,.36-11.24.69-16.18.74s-9.85.18-10.92.28c-3.69.35-16.36.87-23.79,1-4.1.06-11.53.22-16.51.37s-15,.27-22.36.26-14,0-14.91.12-6.89.15-13.37.18-12.46.11-13.31.19c-1.64.16-5.67.33-19.93.86-11.19.42-19.6,1-26.54,1.75-3,.34-6.4.59-7.52.56a14.06,14.06,0,0,0-3.59.41,29,29,0,0,1-4.92.65c-1.85.11-5.69.61-8.54,1.11s-6.62,1-8.38,1.13-5,.39-7.2.62-5.44.5-7.2.6-5.8.49-9,.86-7.74.76-10.14.88-5.72.35-7.41.53-6,.29-9.59.26-8.33.11-10.53.32c-4.35.42-13.59.68-20.77.6a53,53,0,0,0-6.93.33c-1.32.21-10.43.31-20.23.22s-18.34-.08-19,0-5.78.25-11.45.3-11.5.14-13,.2-6.86.14-12,.19-11.36.19-13.85.32a42.34,42.34,0,0,1-5.06.08c-.29-.09-4,0-8.26.22s-10.12.45-13.05.54-6.17.23-7.19.33-5.1.24-9.05.33-7.31.23-7.46.32-3.27.24-6.93.33-7.14.26-7.73.36c-1.08.19-38.77-.08-55.08-.39-4.83-.09-12.84-.45-17.81-.78Zm-108-68.6c.27,0,.05-.52-.47-1.13-.82-1-1.49-1.1-4.67-1.05-2,0-3.81.31-3.92.62-.29.81,3.37,1.81,6.18,1.68ZM99,138.14c0-.13-.23-.24-.53-.25a.55.55,0,0,0-.55.55c0,.31.23.42.53.25S99,138.27,99,138.14ZM72.32,121.58c0-.11-.36-.36-.81-.55s-.68-.11-.51.2c.3.51,1.31.78,1.32.35Zm6.35-16.8c-.51-.53-.57-.48-.31.29.19.53.48.83.64.67s0-.59-.34-1Zm4.42-6.27c-.51-.53-.57-.48-.31.29.19.53.48.83.64.67s0-.59-.34-1Zm-4-3.15c-.17-.3-.42-.54-.55-.55s-.24.23-.25.53a.55.55,0,0,0,.55.55C79.17,95.88,79.28,95.64,79.11,95.35Zm21.76-24.83a1.07,1.07,0,0,0-1,0c-.18.17.13.31.69.3s.75-.13.33-.31Zm-.06-1.4a8.09,8.09,0,0,1-2-3.41c0-.19.37,0,.8.36,1,.9,1.66.3.81-.78s-2.13-.25-2.16,1.1c0,.42-.21.64-.43.49s-.46.19-.52.75a.84.84,0,0,0,.93,1.05c.57,0,1,.27,1,.56s.53.54,1.18.55c1,0,1.09-.08.42-.67Zm-3.16-1.22c0-.13.25-.38.55-.55s.53-.06.53.25a.55.55,0,0,1-.55.55C97.87,68.15,97.63,68,97.64,67.91Zm9.69-10.83c0-.66,0-.9-.18-.53s-.49.52-.75.35-.34.07-.18.52C106.65,58.63,107.22,58.46,107.33,57.08Zm-2.73-.5c.6-.91-.05-1.12-.8-.26-.43.49-.48.8-.13.81a1.24,1.24,0,0,0,.93-.54Zm17.73-17.82c0-.11-.35-.36-.78-.54s-.8-.09-.8.19.35.52.78.54.8-.07.8-.19ZM32.55,178.29a1.14,1.14,0,0,1,.55-.82c.3-.17.53.06.52.51s-.26.82-.55.82A.52.52,0,0,1,32.55,178.29Zm22.8-43.19a1.36,1.36,0,0,1,1.27-.3c.39.14.15.38-.58.55C55.15,135.56,54.94,135.49,55.35,135.1Zm7.57.28c-.55-.37-.58-.55-.12-.59a3.82,3.82,0,0,0,2.11-.57.73.73,0,0,1,1,.25c.23.4.14.48-.24.24s-.61-.06-.63.43C65,136.08,64.09,136.19,62.92,135.39Zm-2.71-1.27c.41-.39.8-.41,1.14-.06s.12.56-.63.6-1-.09-.51-.54Zm13.58-7.8c0-.46.26-.68.54-.49a1.14,1.14,0,0,1,.51.84.52.52,0,0,1-.54.49C74,127.15,73.78,126.77,73.79,126.32Zm.82-8.88c.91-1.65,1-1.69.88-.44a1.68,1.68,0,0,1-.82,1.36c-.56.2-.57,0-.06-.92ZM78.27,98c-.45-.29-.19-.53.8-.76,1.78-.4,2.12-.15.83.61a1.75,1.75,0,0,1-1.63.14ZM89.94,62.3a1.07,1.07,0,0,1,1,0c.42.18.29.3-.33.31s-.87-.12-.69-.3Zm1.65-2.09a1.07,1.07,0,0,1,1,0c.42.18.29.3-.33.31S91.41,60.38,91.59,60.21Zm9.65-6.57c0-.56.12-.87.3-.69a1.07,1.07,0,0,1,0,1c-.18.42-.3.29-.31-.33Zm19.33-29.09c-.47-.32-.53-.53-.15-.53a1.24,1.24,0,0,1,.95.55c.39.67.21.67-.8,0Z"/></g></g></svg>
