<svg xmlns="http://www.w3.org/2000/svg" viewBox="0 0 1000 267.46"><defs><style>.cls-1{fill:#2c7b25;}</style></defs><title>Asset 1</title><g id="Layer_2" data-name="Layer 2"><g id="svg2"><path id="path2987" class="cls-1" d="M260.87,266.05c0-.78-.24-1.26-.54-1.08s-.9-.55-1.35-1.62-1.2-2-1.74-2c-.73,0-.79-.16-.28-.77s.48-.83-.07-1-.54-.45.11-1.25.66-1.06.14-1.24a1,1,0,0,1-.69-.77c0-.3.25-.39.55-.2s.41,0,.22-.52,0-.86.3-.86.47-.3,0-1.1-.42-1.1.28-1.1.74-.14.18-.74a1.14,1.14,0,0,0-1.92.95c0,.27-.21.59-.56.72s-.54-.18-.33-1,.09-1.09-.18-.93a2.4,2.4,0,0,1-1.61-.11c-.88-.32-.62-.49,1.24-.81,1.46-.25,2.35-.69,2.35-1.18s.48-.78,1.07-.78a2.61,2.61,0,0,0,1.83-1.08c.74-1.06,3.56-2.51,4.47-2.31a19,19,0,0,0,3.59-.68,60,60,0,0,1,6.57-1.18c1.9-.21,3.59-.61,3.76-.89a2.09,2.09,0,0,1,1.52-.51,16.74,16.74,0,0,0,4.52-1.64,18.13,18.13,0,0,1,4.25-1.64,1.67,1.67,0,0,0,1.27-.56c.19-.3.06-.55-.28-.55-.77,0-.49-2.47.28-2.52a27.91,27.91,0,0,0,3-.73,9.32,9.32,0,0,1,3.77-.35,6.94,6.94,0,0,0,3.1-.2c1-.3,3.14-.81,4.83-1.14,4.65-.91,7.13-1.67,7.13-2.18s-28.32-.16-35.33.46c-3.69.33-5.1.24-6.62-.42-1.06-.46-2.06-.88-2.21-.92s-1-.38-1.89-.75a4.24,4.24,0,0,0-2.48-.33c-.48.19-7.83.43-16.33.54s-16.58.45-17.94.75-5.46.84-9.1,1.19a42.48,42.48,0,0,0-7.67,1.21,8.84,8.84,0,0,1-3.75.31c-1.48-.14-2.83,0-3,.22a.59.59,0,0,1-.81.16c-.28-.17-.51-.05-.51.27s-.19.54-.41.48c-.92-.24-5.66.76-5.66,1.2s-4.17,1.43-5.75,1.23a2.94,2.94,0,0,0-2.09,1,3.82,3.82,0,0,1-2,1.18c-.52,0-2.44.12-4.26.18a28.27,28.27,0,0,0-5.52.76,40,40,0,0,1-4.29.95c-1.15.17-2,.53-1.79.79.51.83-.71,1-10.3,1.83-.51,0-.88.31-.83.6s-.4.67-1,.85a11.22,11.22,0,0,0-2.5,1.27c-1,.68-3.09,1-7.45,1.3-3.33.2-6.63.33-7.34.3a7.32,7.32,0,0,0-3,.82c-1,.5-1.84.66-2,.37-.48-.71-2.42-1.38-2-.7s-.09.69-1.56-.11c-3-1.61-17-.39-18.48,1.61-.45.62-.5,1-.14,1.16a.82.82,0,0,1,.57.68c0,.27-.35.36-.77.19a1,1,0,0,0-1.14.29c-.54.87,2.77.74,4.56-.17a16.67,16.67,0,0,1,4-1.17l3.45-.59c.53-.1,1,.15,1,.54s.69.67,2.35.54c1.81-.14,2.12-.06,1.37.38-.54.31-.85.77-.7,1,.33.53-2.76,1.06-8.73,1.51-3.36.25-4.45.15-4.82-.44s-.48-.57-.49-.07c0,1-3.33.85-4.52-.22-.56-.5-1-.68-1-.39s-1.79.37-4.55.14c-2.51-.21-6.42-.52-8.7-.68a30.86,30.86,0,0,1-6-.95,7.43,7.43,0,0,0-3.19-.38c-.76.14-1.53,0-1.72-.3s-.07-.39.37-.12.59.23.37-.13c-.42-.67-3-1.28-6.16-1.43-1.84-.09-2.22-.3-2.27-1.29s.33-1.23,3.59-1.61a36.71,36.71,0,0,1,5-.3l1.38.12-1.46-.8c-2.54-1.38-5-2-9.85-2.32a59.3,59.3,0,0,1-8.28-1.25c-4.54-1.14-20.29-1.23-21-.12a.79.79,0,0,1-1.08.29c-.92-.57-11.08-.76-10.74-.2s.24.53-7,.75a125.74,125.74,0,0,0-14.88,1.3c-3.48.44-5.51.19-7.5-.93-.83-.47-.65-.73,1.35-2a15.51,15.51,0,0,1,6.58-2c5.09-.64,10-1.45,13.45-2.24,2.09-.47,2.51-.77,2.29-1.6-.16-.6-.59-.9-1-.73s-.77,0-.77-.31.43-.61,1-.62c.83,0,.85-.09.14-.54-.52-.34-.58-.54-.16-.54s.53-.38.35-.84.33-1.12,1.81-1.78l2.13-.95-5.39-.33c-3-.18-6.88-.31-8.7-.28s-3.3,0-3.3,0,.5-.64,1.1-1.34,1.1-1.11,1.1-.9.56,0,1.24-.44a19.42,19.42,0,0,1,5.34-1.45,45.08,45.08,0,0,0,6.28-1.41,15.69,15.69,0,0,1,4.19-.79c3.07,0,10.82-2,8.58-2.23a15.83,15.83,0,0,1-1.61-.3l-1.78-.4c-1.26-.28-1.34-.81-.18-1.18a8.93,8.93,0,0,0,2.61-1.71,5,5,0,0,1,2.68-1.34,2.72,2.72,0,0,0,1.86-.76c.52-.62.06-.82-2.55-1.12-1.75-.2-3.93-.48-4.84-.63-2.17-.35-10.79-.3-11.38.07-.8.49-7.11.73-7.11.26a2.24,2.24,0,0,1,.83-1.13,2.21,2.21,0,0,0,.83-1.26c0-.32-.16-.41-.36-.21s-.7.09-1.1-.25-.74-.38-.74-.09-.37.53-.83.53c-1.33,0-1-.59.86-1.4,2-.91,1.76-1.29-1.55-2-3-.66-3.59-1.68-1.43-2.56s12.74-2.07,18.75-2.09a44.39,44.39,0,0,0,6.58-.38l1.46-.37-1.57-1.29a5.77,5.77,0,0,0-2.51-1.31c-1.31,0-1.71-.91-1-2.22s5.54-3.88,7.47-3.88c.81,0,1.28-.24,1.09-.55a1.75,1.75,0,0,0-1.35-.55A2.21,2.21,0,0,1,46,188.38c.21-1-8.55.12-9.28,1.17-.56.8-14.66,2.9-16,2.38l-1.32-.49,1.28-.69a74.09,74.09,0,0,1,10.19-2.17c9-1.49,11.15-2.55,5.27-2.55a8,8,0,0,1-4-.76c-.77-.63-1.83-.65-6.3-.1-8.22,1-13,1.69-14.13,2-.74.23-1,.06-.83-.61.2-1,1.91-2.13,4.59-3.08,2.3-.82.87-1.55-2.07-1.05l-4.81.78-2.48.39,2.07-2a17.4,17.4,0,0,0,2.07-2.18,15.77,15.77,0,0,0-3.42-.58c-4.45-.5-6.83-1.75-6.8-3.56,0-1,3.59-2.24,6.91-2.48,1.37-.1,4.47-.58,6.9-1.06a77.14,77.14,0,0,1,8.28-1.13c2.13-.14,5.36-.51,7.18-.83,11.31-2,13.86-2.48,14.35-2.75.3-.17-.57-.58-1.93-.92s-2.48-.93-2.48-1.33c0-.93,5.56-2.95,10.61-3.85,2.46-.44,4.27-1.09,4.87-1.75a9.67,9.67,0,0,1,4.21-1.69c4.15-.82,4-1.59-.47-3.26-1-.36-1.65-.94-1.51-1.29.31-.8,2.87-2,4.24-2,.56,0,.87-.25.69-.55s-2.19-.55-4.45-.55c-3.72,0-5.22-.56-3.42-1.29,1.61-.65-6.45-.3-10.43.45-5,.94-7.65.54-7.65-1.11,0-.76,1.44-1.77,5.42-3.77,3.75-1.89,5.19-2.87,4.69-3.2-1-.62,0-1.25,3.69-2.47,5.23-1.73,9.37-4.62,8.83-6.16-.37-1.05,1.67-1.63,10.08-2.84a53.24,53.24,0,0,0,9.31-1.95,16.46,16.46,0,0,1,4.41-1.17c4.1-.49,12-2.48,13.18-3.33a5.93,5.93,0,0,1,2.76-.8,9.09,9.09,0,0,0,2.78-.51c.88-.38.65-.49-1.1-.56-4.71-.17-7.2-.64-7.83-1.45a1.69,1.69,0,0,0-1.93-.5c-1.1.3-1.15.27-.31-.26a3.28,3.28,0,0,1,1.93-.45,2.84,2.84,0,0,0,1.7-.31,2.36,2.36,0,0,1,2.1.26,2,2,0,0,0,2.41.08c.66-.41,1.17-.45,1.38-.11s1.75.55,3.48.56a11.85,11.85,0,0,1,4.52.81c1.65.95,2.21,1,2.21.28,0-.3-.39-.55-.86-.55s-.72-.22-.56-.49-.22-.63-.85-.79-1-.63-.92-1c.24-.74,2.72-1.17,10.37-1.81,6.91-.58,8.83-.89,8.83-1.43,0-.29-.37-.52-.83-.52s-.83-.49-.83-1.1c0-.81.37-1.1,1.38-1.1,1.59,0,1.86-.85.39-1.23a40.84,40.84,0,0,0-6.21,0c-8.37.47-11.71.32-13.47-.63a3.79,3.79,0,0,0-2-.66c-.19.12-.25-.48-.13-1.34.27-1.87-.5-2.16-6.17-2.31-3.39-.09-3.66-.18-2.48-.79,1.94-1,9.05-2.45,13.3-2.7a12.12,12.12,0,0,0,5-1.1c1.57-1.1,2.51-1.11,3.57-.05a5.12,5.12,0,0,0,3.14.82c4.09,0,19.36-1.57,21.43-2.18s2-.66,1.59-2.47a3.06,3.06,0,0,1,.15-2.45c.39-.39.38-.81-.05-1.33-1.32-1.59.36-1.92,8.42-1.65,6.26.21,8.21.09,9.48-.55s7.4-1.63,11.54-1.8c.61,0,2.35-.27,3.86-.54l2.76-.49-2.48-.4a65.88,65.88,0,0,0-9.11-.12c-3.64.15-8.86.25-11.59.21a102.2,102.2,0,0,0-11.87.83A179.81,179.81,0,0,1,125.79,90a4.41,4.41,0,0,0-2.46.47,3.58,3.58,0,0,1-2.07.55c-.95,0-1.72.28-1.72.53s-.56.3-1.24.11c-1-.27-1.06-.22-.41.23s.69.58-.14.59c-.53,0-1,.29-1,.62s-.53.27-1.36-.28c-1.51-1-2.17-1.15-1.71-.4.17.27-.19.62-.8.78s-1.1,0-1.1-.35-.87-.64-2.07-.64-2,.24-1.94.66-.51.58-1.91.4c-2.3-.29-4.57-1.58-4.58-2.6,0-.43-.2-.38-.54.15s-.54.48-.54-.73c0-2,.9-3.69,2-3.69.46,0,.69-.25.5-.55s.11-.57.66-.59a7.53,7.53,0,0,0,4.2-1.22c1.1-.72,3.69-.44,3.69.4,0,.15-.33.15-.74,0a1.59,1.59,0,0,0-1.52.68c-.67.83-.67.89,0,.49s.69-.24.4.54a1.17,1.17,0,0,0,.32,1.46c1.06.67,1.95.54,1-.14-.62-.44-.3-.52,1.29-.29a5.76,5.76,0,0,0,3.13-.34,1.3,1.3,0,0,1,1.82,0c.65.54.89.48,1.24-.31a3.32,3.32,0,0,0,.34-1.39c0-.23.26-.41.69-.41a1.08,1.08,0,0,0,1-.63c.12-.35.94-.71,1.83-.8a3.63,3.63,0,0,0,2.24-1c.34-.46.82-.66,1.06-.44s.29,0,.1-.56c-.43-1.19.63-1.3,1.08-.11.29.75.45.74,1.36-.09s1-.88,1,.11.1.92.54.22c.8-1.23.68-1.5-.79-1.87-.94-.24-1.32-.69-1.26-1.5.1-1.29,2-2.25,4.24-2.12,2.07.12,3.89-.59,3.89-1.52,0-.6.55-.77,2.07-.66a17.57,17.57,0,0,0,7.32-1.21c.67-.38.62-.47-.28-.51-.61,0-2.35-.16-3.86-.3-4.69-.44-10.94-.43-13.19,0-1.55.31-2,.26-1.77-.19s.09-.51-.39-.32-1.19-.33-1.77-1.22c-.71-1.09-.8-1.58-.33-1.74s.34-.48-.33-1c-.91-.71-.85-.76.66-.49.91.16,1.35.14,1,0-1.4-.66-.63-1.34,1.52-1.34,1.39,0,2.21.25,2.22.69s.13.49.48-.06.6-.54.82-.19c.37.6,1.07.55,2.8-.19a9.58,9.58,0,0,1,2.89-.5c2.29,0,3-1.42.77-1.42-.9,0-1.72-.36-1.9-.83s0-.83.74-.83a2,2,0,0,0,1.5-.69c.63-1,2.88-2.16,3.46-1.8a.62.62,0,0,0,.84-.26,2.63,2.63,0,0,1,1.87-.56,21.35,21.35,0,0,0,4.52-.9c2.6-.78,2.84-1,1.77-1.36-.67-.25-5.28-.43-10.24-.38s-9.34-.13-9.74-.37a.77.77,0,0,0-1.1.17c-.44.72-17.61,1.26-18,.57-.15-.24-.66-.29-1.13-.11s-.66.45-.24.71-.13.38-1.06.38-1.68-.24-1.68-.53-.38-.21-.84.17-1,.52-1.23.31.22-.86,1-1.44L106,55l-1.38.27c-1.21.23-1.24.2-.28-.26a7.15,7.15,0,0,1,5.74.17c1.5.83,3.37.56,3.37-.49,0-.48,1.09-.7,3.59-.71,2.25,0,3.59.21,3.59.59s.31.2.69-.3c.5-.65,2-1,5.38-1.26a70.28,70.28,0,0,0,8.18-1.13,37.55,37.55,0,0,1,5.24-.83,24.68,24.68,0,0,0,4.52-.81c2.59-.71,2.3-.74-4.69-.45-4.1.17-7.83.31-8.28.31s-6.17.59-12.7,1.3-13.65,1.37-15.82,1.46-3.83.35-3.69.58-.82.42-2.13.42a63.05,63.05,0,0,0-7.35.8c-4.69.75-15.71,1.53-14.21,1,.38-.13.55-.47.38-.75s.39-.52,1.24-.53a9.36,9.36,0,0,0,3.48-1.07c1.06-.58,2.43-1.28,3-1.56,2-.93,34.56-6.32,42.23-7,2.28-.2,8.86-.85,14.63-1.45s13.38-1.33,16.92-1.63a61.53,61.53,0,0,0,9.09-1.34c1.92-.58,2.76-.63,3-.18s6.16.41,13.19-.35c1.06-.11,4.42-.36,7.45-.55a141.12,141.12,0,0,0,18.4-2.54,6.73,6.73,0,0,1,2.9-.22c.28.18,4.13-.23,8.55-.9,6.54-1,8.27-1.09,9.29-.54s2.36.46,7.29-.51l24.24-4.76c2.43-.47,6-1.21,7.84-1.65a31,31,0,0,1,5.24-.78,17.51,17.51,0,0,0,4.3-.79c2.3-.74,7-1.56,19.6-3.4,6.46-.95,7.77-1.17,14.35-2.41,3-.57,8-1.45,11-2l7.18-1.18c6.45-1.07,7.67-1,9,.14a3.93,3.93,0,0,1,1.26,1.79c0,.34.19.6.41.56a12.58,12.58,0,0,1,1.68,0c1.05.05,1.17.23.71,1.1-.68,1.26-.14,1.94.88,1.1s.88-.1-.43,1.41a6.16,6.16,0,0,1-3.34,1.71c-1.85.31-2.07.49-1.47,1.2.89,1.07.14,1.14,35.52-3.14,2.43-.29,6.78-.65,9.66-.8s8.1-.53,11.59-.85,8.09-.68,10.21-.8a39.25,39.25,0,0,0,6-.79A72,72,0,0,1,423,19.61c4.62,0,8.73-.14,9.13-.28,1-.33,13.93-1,17-.89a6.68,6.68,0,0,1,3.32.86c1,.94,3.69,1,16,.57,5.66-.21,10.87-.7,12.57-1.18,2.23-.62,5.93-.79,15.73-.72,7.05,0,18.78-.1,26.07-.33,14.77-.46,14-.47,29.26.19,9.89.43,15.6.45,24.29.08,1.52-.06,2.33-.23,1.79-.37s-1-.51-1-.83,1.55-.47,4.55-.26c2.51.18,10,.57,16.7.88s15.25.81,19,1.13c15.25,1.25,21.06,1.69,29,2.2,19.81,1.26,30.25,1.77,41.13,2,5,.1,11.22.35,13.8.56s6.43.35,8.56.33,6.35.19,9.39.49,12.87.65,21.85.79,17.43.49,18.77.78a59.38,59.38,0,0,0,6.78.84c2.39.16,5.12.43,6.07.58a134,134,0,0,0,15.81,1.13c6.56.2,12.94.69,22.36,1.7,1.52.16,3.63.37,4.69.45l6.07.51c2.28.19,6.13.51,8.56.69A42.17,42.17,0,0,1,835,32a25,25,0,0,0,3.42.5,26,26,0,0,1,3.95.64,37.44,37.44,0,0,0,5.69.47c7.38.25,7.37.25,7.37,1.14,0,.46.26.83.58.83s.41-.29.19-.65-.09-.53.56-.28A7.32,7.32,0,0,0,859,35c.82,0,1.24.36,1.3,1.1.1,1.32-.2,1.38-1.31.28s-2.45-1.07-2.06.14c.19.59.13.73-.16.35s-1.87-.5-4.88-.25a74.47,74.47,0,0,1-16.29-.5c-2.88-.32-6.61-.72-8.28-.89a32.25,32.25,0,0,1-3.68-.51.86.86,0,0,0-1,.63c-.24.62-.76.74-2,.46a64.23,64.23,0,0,0-8.51-1.11,30.7,30.7,0,0,1-4.19-.58c-.39-.24-7.77-.28-17.89-.09-6.42.12-10.95-.2-14.32-1-1.9-.45-15.21-.65-15.21-.22,0,.22,1.68.57,3.73.79s4.22.5,4.83.62c4.26.84,15.67,1.78,24.84,2.05a18,18,0,0,1,4.45.49c.53.34,17.44,1.66,18.35,1.43a44.53,44.53,0,0,1,4.53.29c3.52.33,12.51,1,14.77,1.09.82,0,.91.75.16,1.21-.54.33-4.7.41-8.46.16a4,4,0,0,1-2.54-.87c-.33-.54-1.28-.63-3.71-.35a23.39,23.39,0,0,0-3.63.59c-.2.12-.75-.16-1.21-.62s-1-.62-1.13-.36c-.31.5-11.45.29-14.68-.28a40.87,40.87,0,0,0-4.16-.46,10.13,10.13,0,0,1-3.45-.77c-1-.52-1.22-.51-1.22.08,0,.43-.74.8-1.79.88a104.1,104.1,0,0,1-15.32-.08c-3.48-.29-5-.25-4.43.11,2.18,1.46-1.91,2.18-8.27,1.45-5.64-.64-6.64-.67-9.08-.3a11.67,11.67,0,0,1-3.92-.09c-2.36-.63-14.65-1.76-20.13-1.84-2.58,0-6.31-.24-8.28-.45s-5.95-.5-8.83-.66-9.72-.65-15.18-1.1-13.6-1-18.07-1.18c-7.29-.33-8.16-.28-8.48.55s-1.26.92-6.5.9a67.61,67.61,0,0,0-8.63.42l-2.48.45,4.14.62a53.75,53.75,0,0,0,6.07.6c1.06,0,5.41.37,9.66.84s12.33,1.13,17.94,1.47,10.77.74,11.44.88,6.27.51,12.42.8c11.06.53,18.82,1,24.72,1.38,1.67.12,7.4.47,12.73.77s10.05.67,10.49.8,1.29.43,1.9.66a14.71,14.71,0,0,0,3.23.57,4.43,4.43,0,0,1,2.76,1c.51.7,1.95.9,7,1a42.66,42.66,0,0,1,6.9.48,23.85,23.85,0,0,0,4.69.66c10.89.85,21.77,1.54,26.78,1.7,3,.1,9.5.61,14.35,1.14s11.07,1,13.8,1.15c18.91.7,34,1.58,42,2.44,2.73.3,7.52.7,10.64.9s5.81.57,6,.83-.53.49-1.54.52-2.53.1-3.39.16-1.67-.06-1.8-.28-1.16-.13-2.28.17a19.31,19.31,0,0,1-5.65.2c-2-.2-12.56-.46-23.49-.58s-24-.38-29-.57c-8.93-.35-11.46-.14-5.6.47a13.4,13.4,0,0,1,3.22.57c.39.39-1.63,1.37-3.3,1.59-2,.26-2.57,1-.9,1,.73,0,4.56.28,8.51.56s11.71.66,17.25.84c9.11.29,10.08.42,10.08,1.29,0,1.21,2.22,1.5,15.62,2,5.4.21,9.95.59,10.11.84a5.16,5.16,0,0,0,2.71.47c4.54,0,3.26,1.52-2.31,2.77a21.75,21.75,0,0,1-4.69.54c-6.72-.37-5,.71,2.58,1.59,3,.35,7.26.76,9.39.91s6,.52,8.56.82,7.8.71,11.59.91c4.67.25,7.08.6,7.45,1.09s2.28.88,4.42,1.08,4.11.66,4.42,1,2.37.84,4.58,1A16.43,16.43,0,0,1,944,80c.78.51,3.17.9,6.46,1.05,7.09.33,12.65,1,13,1.45s-4.51,1.27-5.25.81c-.3-.19-.55-.11-.55.18s.87.69,1.93.89c2.1.39,2.49,1.08,1,1.67-1.8.7.72,1.81,6.4,2.81,4.77.84,7.78,1.88,5.58,1.92s1.12,1,4.44,1.36a13.6,13.6,0,0,1,4.22.9,14.77,14.77,0,0,0,4.13,1.09c5.34.86,5.28,1.55-.17,2-2,.16-3.89.63-4.45,1.13-.78.7-1.74.79-5.24.46-7.12-.66-8.53-.54-9.6.88-.52.69-.84,1.43-.71,1.65a13.08,13.08,0,0,0,4,.77,16.38,16.38,0,0,1,4.27.82,10.94,10.94,0,0,0,3.17.82c4,.59,3.15,1.37-1.43,1.37a14.65,14.65,0,0,0-4.47.41c-.23.23-2.55.41-5.15.41-3.29,0-4.8.21-5,.69s.43.69,1.88.69a19.32,19.32,0,0,1,4,.51,51.51,51.51,0,0,0,6.61.86,19.43,19.43,0,0,1,5.3.87c.34.28.77.37.94.19s.9-.12,1.61.14c1,.35.4.54-2.58.81a42.5,42.5,0,0,0-9.66,1.94c-1.35.52.75,1.08,7,1.9,3.11.41,5.66.89,5.66,1.07s1.61.22,3.59.1c2.88-.18,3.59-.07,3.59.58,0,1-1.75,2.64-2.8,2.63-.65,0-.64-.1,0-.54s.68-.54-.16-.54a1.48,1.48,0,0,0-1.31.85c-.28.73-1.28.81-6.75.57-6.85-.31-8.54.06-7.27,1.58C972.38,122.3,981,125,986.93,125c3.58,0,5.45.67,5.45,2,0,.64-.88.81-4.28.8a33.58,33.58,0,0,1-6.49-.59,104.89,104.89,0,0,0-12.72-.83c-10.22-.24-10.51-.22-10.59.86a1.87,1.87,0,0,0,1.78,2l5.29,1a192.81,192.81,0,0,0,23.86,3.09c7.18.46,9.63,1.09,8.89,2.29a.61.61,0,0,1-.84.17c-.29-.18-.46,0-.38.41s-.28.7-.81.66-.84.12-.69.35-.58.59-1.61.78c-2.23.42-2.76,1.41-1.62,3,.61.87.67,1.39.24,1.91-.71.86-.25,1.44,1.14,1.44.56,0,1,.1,1,.23a6.38,6.38,0,0,0,.37,1.19c.34.88,0,.93-4.55.59-2.71-.2-5.85-.51-7-.69-1.65-.26-2.07-.15-2.07.53a1.79,1.79,0,0,1-.89,1.36c-1.26.71-.51,3.89,1.08,4.53,1.13.46,1.14.48.09.55s-1.1.07,0,.55-.43.66-6.07.8c-2.35.06-4.14.8-4.14,1.72,0,.49-.57.79-1.52.8a13.28,13.28,0,0,0-2.77.34c-1.18.32-1.19.38-.28,1.08a4.91,4.91,0,0,0,2.49.76,17.17,17.17,0,0,1,5.15,1.95,16.28,16.28,0,0,0,5.45,1.93c3.35,0,8.56.7,8.31,1.12-.14.23.17.38.68.34a1.11,1.11,0,0,1,1.14.88c.25,1.21-3,3.31-4.69,3-.67-.12-1.31.06-1.42.39-.26.78-6.7,1-9.28.32a105.29,105.29,0,0,0-12.56-.68c-9.83-.14-12.73.14-9.05.88.84.17,2.64.56,4,.87a27.78,27.78,0,0,0,4.83.59c1.29,0,2.35.27,2.35.58s.39.55.86.55a5.27,5.27,0,0,1,2,.61c1.12.6,1.12.61-.17,1.26-2.26,1.13-1.56,2.19,2.24,3.4,2,.62,3.67,1.49,3.81,1.93a2.44,2.44,0,0,0,.75,1.12c.84.55-.17,2.26-1.12,1.89-.48-.19-.73-.18-.54,0s-.29,1-1.05,1.73a5,5,0,0,1-3.75,1.48c-1.3.05-2.26.25-2.14.45s-2.15.24-5.06.09c-4.22-.22-5.47-.1-6.21.57-1,.93-6.45,1.31-9.28.66-1.08-.25-1.87-.17-2.1.21a2.22,2.22,0,0,1-1.68.61c-1.66,0-3,.53-3,1.16,0,.27.36.49.8.49a1.68,1.68,0,0,1,1.27.84c.29.52,2.45,1.22,5.69,1.85,6.38,1.24,11.07,3.14,10.63,4.3a.86.86,0,0,1-1.1.51c-.43-.17-.65-.08-.48.2S954.2,198,953.4,199c-1.07,1.27-1.74,1.63-2.56,1.37-.62-.2-1-.13-.8.15s-.55.53-1.61.56a37.48,37.48,0,0,0-5.8,1l-3.88.95,1.23,1.31a4.46,4.46,0,0,0,1.74,1.31,10.47,10.47,0,0,1,2.41.9c1.82.86,1.86,1,1.06,2.18-.53.81-.63,1.41-.28,1.62a.67.67,0,0,1,.2.92c-.23.37-.53.31-.84-.18s-.63-.55-.9-.19a7.42,7.42,0,0,1-2.07,1.36l-1.66.8,1.75.19c1.89.2,2.9,1.62,1.53,2.15a1.31,1.31,0,0,1-1.15,0c-.17-.17-1.13.16-2.14.73a15.48,15.48,0,0,1-3.94,1.43,6.79,6.79,0,0,0-2.84,1.14c-1,1-1.35.95-6.48-.36-4.6-1.18-5.9-1.07-7.79.66-1.07,1-1.5,1-4.38.49-3.78-.7-10.91-.79-10.51-.13a14.47,14.47,0,0,0,4.31,1.15c5.64,1,6.28,1.17,5.35,1.74-1.61,1,5.59,3.34,12.62,4.11a10.75,10.75,0,0,1,3.72.81c.15.24-.25,1.1-.89,1.9-1.07,1.36-1.09,1.55-.27,2.45a4,4,0,0,1,.89,1.28c0,.68-9.35-.3-12.42-1.3-4.42-1.45-13.37-2.5-14.19-1.67-.44.44-.44.81,0,1.33.58.7,1.46,1,8.83,3,2.3.62,3.45,1.2,3.45,1.76s-.65.77-4.1.46c-2.62-.24-4.22-.17-4.45.2s0,.57.32.57.55.13.39.29c-.37.37-8.19-1.27-9-1.88-.61-.48-8.67-1.72-10.39-1.6-.53,0-1,.38-1,.76a4.84,4.84,0,0,1-.29,1.44c-.27.71,6.47,2.14,18.09,3.84a26.58,26.58,0,0,1,5.17,1.3,11.81,11.81,0,0,0,3.73.84c2.5,0,6.09,1.1,5.51,1.68-.27.27-3.63.56-7.47.65s-6.94.2-6.89.25,1.32.58,2.82,1.17c2.61,1,2.68,1.1,1.48,1.74-.94.5-1.93.52-4,.08-3.36-.72-3.8-.73-3.8-.08,0,.28.74.67,1.65.87,3,.66,2.36,1.38-1.26,1.38a13.8,13.8,0,0,0-5.27.87,4.38,4.38,0,0,1-3,.48c-1.57-.5-27.5-.69-27.19-.2.64,1-6.6,1-12.78,0-12.52-2.11-23.16-3.31-30-3.39-3.8,0-9.51-.42-12.7-.83s-8.87-1-12.62-1.33-7-.66-7.18-.78a32.88,32.88,0,0,0-4.49-.56c-2.28-.19-5-.46-6.07-.59-2.21-.27-12.29-.83-19.6-1.09-5.29-.19-13.33-.7-18.77-1.19-1.82-.16-8.9-.4-15.73-.53s-14.91-.44-17.94-.69-11.43-.43-18.66-.4c-10.93,0-13.23.19-13.66.87s-.6.7-1,0-1-.66-2.13-.44a3,3,0,0,1-2.24-.28,4.72,4.72,0,0,0-2.43-.72,16.71,16.71,0,0,1-2.93-.44c-3.31-1-6.76-1.26-8.14-.67-1.11.47-3.9-.09-3.51-.71.14-.23-2.52-.48-5.91-.57-9.14-.22-10.09-.32-11.12-1.18-.84-.7-.92-.67-.76.29.13.73-.08,1-.64.88a11.59,11.59,0,0,0-2.07-.21c-.68,0-1.24-.2-1.24-.43s-.4-.58-.89-.77c-.65-.25-.8-.11-.56.52s.12.73-.35.43a26.89,26.89,0,0,0-5.93-.61c-6.07-.2-5.16-.2-33.68-.1-12,0-23.34-.1-25.22-.32a14.85,14.85,0,0,0-4.34,0c-.94.36-19,1.07-24.52,1-4.33-.08-9.25,2.47-6.51,3.38.41.14.13.53-.69,1a6.14,6.14,0,0,0-1.69,1.19c-.61.93-5.3,1.44-6.63.73-.84-.45-3.06-.61-6.56-.48-2.91.11-12.46.33-21.23.49s-16.55.44-17.28.63a54.25,54.25,0,0,1-7,.42c-3.09,0-6.12.36-6.73.71-1.09.61-6.21,1.61-7.06,1.38a11.94,11.94,0,0,0-4.81.17,13.33,13.33,0,0,1-3,.33l-2.21-.19a59.29,59.29,0,0,0-6.35.55c-2.88.36-6.32.64-7.63.64a6.82,6.82,0,0,0-3,.51,7.65,7.65,0,0,1-2.44.91c-1.47.31-1.79.21-1.79-.55s-.46-.89-4-.54c-2.2.21-8,.45-12.84.52a90.09,90.09,0,0,0-11.81.78c-1.64.36-3.09.65-3.24.65s0,.37.42.83a3.85,3.85,0,0,0,2.55.83,4,4,0,0,1,1.86.23,5.64,5.64,0,0,0,.34,1.1c.46,1.2-1.09,1.14-2.32-.09-.7-.7-1-.77-1.19-.27s-.46.55-.73.38-.5-.11-.5.13-.56.48-1.24.51-4.47.35-8.42.69-11.9.72-17.67.85-11.11.36-11.87.52c-2.57.56-16.71,1.87-24.29,2.25-14,.69-24.69,2.7-26.88,5.07a4.54,4.54,0,0,1-2.77,1.37c-7.14.23-17.07,1-21.42,1.61-1.82.26-5,.63-7.1.82s-5,.58-6.56.86-2.86.53-3,.53-.2-.64-.2-1.41Zm0-5c0-.6-.24-.65-1.08-.2-.65.35-1,.92-.76,1.41s.5.69,1.08.2a2.18,2.18,0,0,0,.76-1.41Zm93-8.21c2.16-.77,2.11-.79-2.48-.52-10.51.62-13.8.93-13.8,1.31,0,.72,14,0,16.29-.79ZM97.46,246.15c0-.12-.37-.22-.83-.22s-.83.24-.83.53.37.39.83.22S97.46,246.27,97.46,246.15Zm40-1.87c.19-.31-.26-.55-1-.55a2.36,2.36,0,0,0-1.72.55c-.19.31.26.55,1,.55A2.36,2.36,0,0,0,137.48,244.28Zm-26.22-2.82c0-.57-.66-.62-1.89-.15-1.39.53-1,1.19.51.9C110.64,242.06,111.26,241.72,111.26,241.45Zm312.39-.09c1.88-.52,2.14-.73,1.21-.95-1.47-.35-19,.39-28.45,1.2-2.56.22,17.2.75,21.26.58a33,33,0,0,0,6-.82Zm19.14-1.7c.61-.14-.51-.24-2.48-.22-4.71.06-6.58.57-3.59,1a10.74,10.74,0,0,0,3.59-.1C441.06,240.1,442.18,239.81,442.78,239.66Zm-352.32.16c1.14,0,1.13-.06-.15-.57-1.51-.6-2.8-.3-2.8.65,0,.35.39.48.87.29a7.62,7.62,0,0,1,2.07-.37Zm360.61-.62c.15-.15-.84-.31-2.18-.36s-2.62.18-2.83.52.38.54,2.18.36a10.53,10.53,0,0,0,2.83-.52Zm431.72-6.52c.21-.34-.67-.53-2.31-.49-2.36.06-2.47.11-1,.49C881.9,233.3,882.41,233.3,882.79,232.68ZM31.86,224.58a1.11,1.11,0,0,0-1.06,0c-.18.18.14.31.72.29s.77-.16.33-.33Zm6.52-.73c1.11-.36,1.16-.45.28-.46a6.46,6.46,0,0,0-2.21.46C35,224.45,36.5,224.45,38.38,223.85Zm7.41.22a1.52,1.52,0,0,0,.87-1.33c0-.85-.35-.95-2.35-.7-2.54.32-4.19,1.26-2.21,1.26a2,2,0,0,1,1.52.55c.39.64.93.69,2.16.22Zm896.9-9.6c0-.3-.43-.55-1-.54-.83,0-.85.09-.14.54C942.63,215.14,942.69,215.14,942.69,214.46ZM59.47,192a1.11,1.11,0,0,0-1.06,0c-.18.18.14.31.72.29s.77-.16.33-.33Zm-4.52-1.61c0-.9-1.54-1-3.55-.23-2.2.83-1.67,1.42,1.07,1.2C54.13,191.23,54.95,190.91,54.95,190.39Zm10.25.4c-.55-.89-2.53-1.12-2.53-.29,0,.46.57.78,1.41.78S65.37,191.06,65.2,190.79ZM61,190.17c.62-.4.3-.54-1.24-.54-1.14,0-2.07.24-2.07.54C57.71,190.88,59.93,190.88,61,190.17Zm920.32-64.59a.55.55,0,1,0-.55.55A.55.55,0,0,0,981.34,125.58Zm4-10.3a2.13,2.13,0,0,0-1.38,0c-.38.15-.07.28.69.28s1.07-.13.69-.28Zm-8.28-6.65a7.87,7.87,0,0,0-2.48,0c-.68.13-.12.24,1.24.24S977.74,108.76,977.06,108.63Zm-25.53-4.46c0-.24-2-.72-4.55-1.08s-5.15-.83-5.88-1-1.2-.18-1,.16,2.52.86,5.19,1.25,5.1.78,5.41.88l.69.22c.08,0,.14-.15.14-.39ZM146.31,99.08c1-.42.95-.48-.38-.51a2.48,2.48,0,0,0-1.83.51C143.7,99.74,144.78,99.74,146.31,99.08Zm801.35-3.23c0-.26-2.49-.76-5.54-1.1-6.86-.78-8.1-.8-7.39-.09.29.29,3.26.76,6.6,1s6.12.53,6.2.57.14-.14.14-.4ZM115.34,89.23c.16-.25-.08-.46-.52-.46s-.8.21-.8.46a.49.49,0,0,0,.52.46A1.06,1.06,0,0,0,115.34,89.23Zm73.86-1a1.11,1.11,0,0,0-1.06,0c-.18.18.14.31.72.29s.77-.16.33-.33Zm-85.68-.73c0-.3-.43-.55-1-.54-.83,0-.85.09-.14.54C103.47,88.16,103.53,88.16,103.53,87.49Zm2.21-.86c0-.13-.25-.24-.55-.24a.57.57,0,0,0-.55.58c0,.32.25.43.55.24s.55-.45.55-.58Zm31.47-3.84a51.22,51.22,0,0,1,5.24-.85,44.63,44.63,0,0,0,5.8-1c1.06-.32,1.93-.56,1.93-.54,0,.21,3.78-1,5.66-1.77,2.85-1.21,3-2.14.41-2.14-1.35,0-1.93-.25-1.93-.83,0-.85,2.47-1.18,6.57-.89a24.82,24.82,0,0,0,8.05-1.5c.87-.51-1.91-1.08-5.55-1.14a16.93,16.93,0,0,0-6.87,1.33,21.52,21.52,0,0,1-4.66,1.39c-.91,0-1,.11-.34.52a1.43,1.43,0,0,0,1.24.24c.24-.15.44,0,.44.25,0,.49-1.21.84-5.43,1.57a3.13,3.13,0,0,0-2.13,1.09c-.24.64-.46.65-1.17.07s-.81-.56-.54.17,0,.85-.86.78a11.18,11.18,0,0,0-3,.41c-1.27.35-2.07.3-2.62-.16s-.79-.42-.79-.11c0,.61-4.21,2.35-5.68,2.35a.87.87,0,0,0-.95.75c0,.56.74.72,2.9.6a26.33,26.33,0,0,0,4.28-.54Zm22.71-20a1.41,1.41,0,0,0-1.31.34c-.41.41-.19.48.72.24C160.08,63.15,160.33,62.9,159.92,62.76Zm666.84-2.19c0-.23-.75-.47-1.68-.53s-1.53.11-1.35.41c.38.62,3,.73,3,.12ZM161.5,57.09l1.38,0-1.29-.52c-1.45-.58-4-.13-4,.71,0,.31.56.41,1.24.22a13.89,13.89,0,0,1,2.62-.38Zm660.84.12c0-.25-.37-.46-.83-.46s-.83.21-.83.46.37.46.83.46S822.34,57.47,822.34,57.21Zm2.31.08a1.11,1.11,0,0,0-1.06,0c-.18.18.14.31.72.29s.77-.16.33-.33ZM171,56.19a1.11,1.11,0,0,0-1.06,0c-.18.18.14.31.72.29s.77-.16.33-.33ZM109,55.47a.55.55,0,1,0-.55.55A.55.55,0,0,0,109,55.47ZM123.4,54c0-.62-1-.08-1.33.7s-.21.79.49.21A3,3,0,0,0,123.4,54Zm5.52.07c0-.46-.1-.83-.22-.83s-.36.37-.53.83-.08.83.22.83S128.92,54.54,128.92,54.08ZM851.7,35.21a1.11,1.11,0,0,0-1.06,0c-.18.18.14.31.72.29s.77-.16.33-.33ZM343.38,24a.6.6,0,0,0-.19-.82c-.28-.17-.65.06-.82.51-.34.89.49,1.15,1,.31ZM81.34,261c-.32-.38-.36-.7-.1-.71s0-.29-.55-.62c-1.46-.85-.17-1.57,2.69-1.51,1.49,0,1.85.16,1.1.41-1.05.34-1.84,1.75-1,1.73,1.62,0,2.79-.75,2.54-1.57s-.18-.79.51.05c.94,1.14,5.14,1.36,5.51.28.18-.55.41-.54,1.09,0,1.07.89,1.71,3,.8,2.7a.84.84,0,0,1-.47-1c.13-.52-.13-.47-.84.18s-2,.9-5.88.81c-3.09-.07-5.07-.36-5.44-.8Zm-7.58-1.22a.93.93,0,0,1,.48-1.68c.63,0,1.18,1.56.67,1.88A1.32,1.32,0,0,1,73.76,259.76Zm11.68-4.44c-.61-1-.55-1.11.56-1.19.69,0,1.62-.12,2.07-.17,1.47-.16,1.75.34.78,1.42C87.62,256.73,86.31,256.71,85.44,255.32Zm334.43-4.11c0-.13.25-.4.55-.58s.55-.08.55.24a.57.57,0,0,1-.55.58C420.12,251.45,419.87,251.34,419.87,251.21Zm6.48-.38c.37-.38.82-.55,1-.38s-.14.48-.68.69C425.87,251.44,425.81,251.38,426.35,250.83ZM130,249.31a2.28,2.28,0,0,1,.85-1.19c.66-.55,1-.56,1.51,0s.48.78-.16,1.18c-1,.66-2.2.69-2.2.05Zm623.3-5c0-.3.36-.55.8-.55a1.46,1.46,0,0,1,1.14.55c.19.3-.17.55-.8.55S753.33,244.58,753.33,244.28Zm-9.39-.59c0-.63,1.48-.69,1.86-.08.15.24-.21.47-.8.52s-1.07-.15-1.07-.44Zm-547.5-.89c-.5-1.29.26-1.48,2.17-.54,1,.49,1.56.93,1.26,1C197.54,243.58,196.7,243.47,196.44,242.8Zm477.39-1.28c0-.3.11-.55.24-.55s.4.25.58.55.08.55-.24.55A.57.57,0,0,1,673.83,241.52Zm-8-.48c-.24-.38-.28-.85-.1-1,.49-.49,1,.23.77,1-.19.56-.32.56-.66,0Zm2,.11c-1.13-.46-.78-1.21.41-.9.61.16,1.1.51,1.1.78C669.41,241.56,669,241.59,667.89,241.15Zm264.68-2.76c-.64-.64-.4-1.29.46-1.29a.83.83,0,0,1,.83.83c0,.86-.65,1.1-1.29.46ZM247.42,235c-.15-.24.21-.47.81-.52s.93.15.76.44A.9.9,0,0,1,247.42,235Zm5-.95a1.49,1.49,0,0,1,1.22-.87c.5,0,2-.15,3.39-.29,1.79-.18,2.25-.09,1.66.31s-.69.56,0,.57c.43,0,.63.16.44.35a12.9,12.9,0,0,1-3.66.55C252.63,234.85,252.13,234.74,252.39,234.06Zm-225.3-1.34c-.41-.66.63-1.32,1.37-.86s.21,1.37-.56,1.37A1.1,1.1,0,0,1,27.09,232.72Zm5.22-14.36a1.17,1.17,0,0,1,.55-.86c.31-.19.41,0,.22.52C32.71,219,32.31,219.16,32.31,218.36Zm4-.28c0-.44.21-.67.47-.51a.58.58,0,0,1,.15.8C36.53,219.09,36.36,219,36.36,218.08ZM998.45,146c-.46-.29-.58-.54-.28-.54a3.32,3.32,0,0,1,1.38.54c.46.29.58.54.28.54A3.32,3.32,0,0,1,998.45,146ZM91.38,105c0-.24.5-.43,1.1-.43s1.1.23,1.1.52-.5.48-1.1.43S91.38,105.27,91.38,105Zm23.12-8.11-1.29-1,3.3-.44c1.82-.24,4.61-.45,6.2-.47s2.9-.2,2.9-.41c0-.43,3.29.43,3.8,1,.19.2-.43.23-1.36,0a5.33,5.33,0,0,0-3.31.53,12.36,12.36,0,0,1-4.51.9c-1.59,0-2.9.25-2.9.5,0,.79-1.5.47-2.83-.6Zm-7,.16a1.11,1.11,0,0,1,1.06,0c.44.18.31.31-.33.33s-.91-.11-.72-.29Zm-10-7.63c0-.58.11-.91.29-.72a1.11,1.11,0,0,1,0,1.06C97.66,90.24,97.53,90.11,97.5,89.46Zm15.08-4.64c.15-.25-.23-.89-.85-1.42-1.11-1-1.08-1,2.29-2.58,4-1.91,4.42-2,4.42-.51a1,1,0,0,1-1,1.11c-.78,0-.82.1-.19.5a2.86,2.86,0,0,0,1.79.3c.56-.11,1,.06,1,.37s-.81.52-1.79.46S116,83,115.4,83c-.92.05-1,.15-.28.6s.69.54-.14.54c-.53,0-1,.26-1,.56s-.39.55-.86.55-.73-.2-.58-.45Zm7.06-4.45c-.56-.34-.53-.57.1-1.1.89-.74,1.61-.09,1,.9A.78.78,0,0,1,119.64,80.37ZM100.49,57.12c-.19-.3,0-.55.49-.55a1.5,1.5,0,0,1,1.17.55c.19.3,0,.55-.49.55A1.5,1.5,0,0,1,100.49,57.12Zm11.31-2.47c.8-1,1.11-1.06,1.11-.35,0,.27-.41.65-.91.84-.76.29-.79.21-.21-.49Zm780.26-8.91c.65-.65,4.18-1.15,4.9-.7.41.26.5.5.19.54C894.17,45.91,891.81,46,892.06,45.74Zm-3.35-.68c-.46-.29-.12-.45,1-.45.92,0,1.68.21,1.68.46,0,.59-1.71.58-2.64,0Zm-14.19-.7c-2.36-.53-8.1-.91-18.82-1.24-3.67-.12-7.21-.49-7.86-.84s-3.18-.57-6.16-.48a49.56,49.56,0,0,1-5,0A15.76,15.76,0,0,1,840.29,40c.18,0,.18.25,0,.55s.36.55,1.35.55,1.69-.25,1.69-.55a.57.57,0,0,1,.58-.55c.32,0,.4.31.17.69s-.21.54.38.13a3.5,3.5,0,0,1,1.9-.5c.61,0,2.42.1,4,.15s2.82.27,2.67.5,1.27.38,3.14.33a13.39,13.39,0,0,1,4.36.43q1,.51,1-.09c0-.33.3-.42.67-.19a23.71,23.71,0,0,0,5.38.56c2.59.08,4.72.18,4.72.22s1.24.15,2.76.24a20.7,20.7,0,0,1,2.9.3,5.93,5.93,0,0,0,1.66.49c.44.09-2.15,1.7-2.62,1.62l-2.48-.54Zm-22.36-2.76c0-.27-.48-.48-1.07-.48a1.83,1.83,0,0,0-1.37.48c-.16.27.32.48,1.07.48S852.15,41.86,852.15,41.59ZM881.68,40a.64.64,0,0,0-.86-.24c-.28.17-.51.07-.51-.23,0-1.07.89-1.09,1.55,0,.37.59.56,1.07.42,1.07s-.4-.25-.59-.56Zm-11.82-2.15c-.58-.58-1.17-.94-1.31-.8a11.16,11.16,0,0,1-2.94.44c-2.56.18-5.74-1-4.93-1.77.64-.64,4.46-.49,5.29.21a2.53,2.53,0,0,0,3.1,0c.59-.59,3.4-.46,3.79.17.53.86-.26,2.76-1.14,2.76a3.51,3.51,0,0,1-1.85-1.06Zm5.7.42c-.24-.38-.15-.49.21-.27a.69.69,0,0,0,.95-.19c.51-.83,1.2-.68,1.2.27s-1.78,1.12-2.35.19ZM230.1,34.15a1.11,1.11,0,0,1,1.06,0c.44.18.31.31-.33.33s-.91-.11-.72-.29ZM341.48,18.48c0-.3.11-.55.24-.55s.4.25.58.55.08.55-.24.55A.57.57,0,0,1,341.48,18.48Zm12.87.06c-.89-.65-.68-1.6.3-1.34.63.16,1-.06,1.09-.61s.13-1.24.18-1.7A1.17,1.17,0,0,1,357,14a10.11,10.11,0,0,0,1.43-.18l2.07-.56c2-.54,3.13-1.36,2.72-2-.17-.27.19-.49.79-.49a1.54,1.54,0,0,1,1.37.69c.19.48.42.51.74.1a2.59,2.59,0,0,1,3.39-.66c.72.58.78.57.39-.08s-.24-.7.49-.41a5.88,5.88,0,0,0,1.71.37c.41,0,.9.47,1.08,1a1,1,0,0,0,1.33.79c1.41-.37,1.26-1.73-.16-1.47-1.12.21-1.12.2,0-.31a9,9,0,0,1,3-.56,49.88,49.88,0,0,0,5.24-.58c4.81-.77,16.91-2.12,22.42-2.51,2.58-.18,5.81-.42,7.18-.54,2.88-.25,8.56-.66,16-1.14C431,5.28,435,5,437,4.82c4.74-.4,12.21-.43,13.25-.05a28.26,28.26,0,0,0,3.17.73c1.29.23,2.35.61,2.35.83a5.64,5.64,0,0,1-1.36,1.77c-1.11,1.11-1.88,1.35-4.14,1.31-1.65,0-2.7.17-2.59.5s2.1.58,4.44.6c3.67,0,6.12.75,5.28,1.54-.37.35-7.69.7-7.69.37A11.83,11.83,0,0,0,446,12.3a41.21,41.21,0,0,1-6.89-.33,11.27,11.27,0,0,0-3.43-.24,8.71,8.71,0,0,1-2.63.38,22,22,0,0,0-3.89.54,2.69,2.69,0,0,1-2.23-.16c-.39-.32-3.1-.64-6-.71-3.63-.09-5.22-.32-5-.72s-.07-.25-.58.17-1.64.65-3.18.4-2.13-.17-1.9.21c.39.63.32.64-4.68.78a23.33,23.33,0,0,0-4.83.53c-.68.24-1.24.23-1.24,0s-.62-.45-1.38-.45-1.38.19-1.38.41-.39.41-.86.41-.73-.21-.57-.47c.38-.62-5.29.29-5.7.92-.75,1.14-11.09,2.3-11.09,1.24a.59.59,0,0,0-.58-.59c-.32,0-.44.23-.27.51.5.81-.77,1.31-1.59.62-.55-.46-.81-.43-1,.11s-1.09.68-2.55.6c-1.25-.07-2.27.11-2.27.39,0,.91-2.84.31-3.39-.72-.29-.55-.77-.85-1.07-.67a.59.59,0,0,0-.25.79c.16.25-.08.6-.53.77a1,1,0,0,1-1.14-.23c-.2-.33-.91-.21-1.81.29-1.7.95-7,2-7.65,1.46ZM346.44,16c0-1,.33-1.11.8-.35a.64.64,0,0,1-.24.86C346.7,16.73,346.44,16.5,346.44,16Zm2.08-1a1.41,1.41,0,0,1,1.31-.34c.41.14.16.39-.58.58-.92.24-1.13.17-.72-.24Zm190.18-1.4c-.68-.13-1.24-.43-1.24-.66,0-.68,2.4-.31,2.64.4.12.36.13.61,0,.57s-.74-.18-1.43-.31ZM527.25,12.4c1.52-.65,2.39-.65,1.38,0a3.41,3.41,0,0,1-1.66.5C526.43,12.89,526.52,12.72,527.25,12.4Zm3.34.05c-.17-.28.19-.37.8-.21,1.29.34,1.45.71.31.71A1.42,1.42,0,0,1,530.6,12.45ZM459.52,11.2c-.87-.87-.47-.93,6.35-1,4,0,7.83-.15,8.51-.28s1.36,0,1.52.23,1,.41,2,.35c2.51-.17,2.52.63,0,.87-1.19.11-2,0-1.9-.22.45-.73-.4-.46-1.26.4s-3.27,1.11-3.79.27c-.23-.37-.71-.36-1.42,0-1.22.65-2.37.21-1.81-.7.25-.4.11-.44-.41-.11a13.59,13.59,0,0,1-3.81.78c-2.39.23-3.23.1-4-.64Zm44.26.65c0-.3.11-.55.24-.55s.4.25.58.55.08.55-.24.55A.57.57,0,0,1,503.79,11.85Zm-22.08-1.1c-.5-.32-.57-.54-.17-.54a1.28,1.28,0,0,1,1,.54C483,11.43,482.77,11.43,481.7,10.75Zm215.63-.08c.29-.46-1.82-1-2.24-.58-.59.59-3,.71-3,.14,0-.35-1.57-.43-4.28-.23-3.32.25-4.71.12-6.21-.58-1.06-.5-1.51-.79-1-.65s1,0,1.1-.23a1.47,1.47,0,0,1,1-.66,2.38,2.38,0,0,0,1.23-.73c.22-.3.41,0,.41.66,0,1.14.09,1.17,1.53.42s1.6-.69,2.28.17.75.92.43,0c-.26-.75,0-1,1-1a2.39,2.39,0,0,1,1.9,1c.31.54.57.66.58.28,0-.72,1.67-1,1.67-.28,0,.23,1.88.4,4.17.38s4.3.17,4.45.41a2,2,0,0,0,1.46.45c.95,0,1,.14.49.69s-7.36,1-6.94.34Zm9.06,0a.49.49,0,0,1,.41-.5L709,9.89c2.18-.29,3,.66.86,1S706.4,11.21,706.4,10.65ZM666.65,8.81c0-.3-.93-.55-2.07-.55a4.17,4.17,0,0,0-2.48.55q-.41.55-.42,0c0-.69-3.32-.86-3.32-.16,0,.28-.23.37-.5.2-.53-.32-5.38-.85-10.54-1.13a19.05,19.05,0,0,1-3-.29c0-.37-7.26-.38-7.73,0-.83.66-6.35,1.12-6.35.53,0-.28-.37-.51-.83-.51s-.83.24-.83.53-3.89.43-10.35.27c-5.69-.14-11-.26-11.68-.26a14.47,14.47,0,0,1-3.17-.5c-1.11-.31-1.84-.31-1.84,0,0,.5-1.93.42-2.45-.1a30.15,30.15,0,0,0-5.58-.08c-3.52.13-5.57,0-6.09-.45s-.78-.48-.79.11-.16.55-.41.18-3.38-.6-7.86-.65c-4.1,0-16.52-.21-27.6-.38s-25.31-.35-31.61-.39-11.46-.23-11.46-.42-1.37-.35-3-.35-3,.19-3,.41-.26.41-.58.41-.43-.25-.24-.55,0-.55-.52-.55-.86-.25-.86-.55a.57.57,0,0,0-.58-.55c-.32,0-.43.25-.24.55s-.41.55-1.49.54c-1.38,0-1.63-.14-1-.54s.64-.54.1-.54-.54-.2.1-.84a3.22,3.22,0,0,1,2-.83c.63,0,1.14-.27,1.14-.59s.48-.44,1.17-.22,1,.17.8-.24-.23-.61-.05-.61.52.51.75,1.14l.42,1.14,1.46-1.15c1-.78,1.58-.95,1.84-.52s.52.4.85-.13S510.76,0,526.82,0c10.87,0,24.23.18,29.69.38s14.53.5,20.15.67c20.28.64,25.51.87,26,1.15,1,.63,5.46,1.18,6.14.77a.81.81,0,0,1,1.15.22c.32.49.57.45,1-.17.3-.46.55-.58.55-.28s3.42.53,9.26.49c9.22-.07,25,.82,25,1.41,0,.17,1.93.28,4.28.25,4-.06,13.32.7,15,1.22.61.19.62.4.06,1.07s-.55.79.08.59c.42-.13,1.46-.39,2.31-.58s1.42-.6,1.22-1,0-.29.32.19c.52.7,1.23.78,3.71.45a9.32,9.32,0,0,1,4,.1,7.22,7.22,0,0,0,2.52.59c1.43.07,1.45.1.22.33-1,.19-1.16.36-.55.74.85.54.14.61-7.64.72-2.71,0-4.55-.16-4.55-.49Zm-160.46-5c-.17-.45-.54-.69-.81-.52-.78.48-.58,1.34.32,1.34C506.2,4.67,506.39,4.35,506.2,3.85ZM474,5.74c.57-1.06.53-1.18-.25-.88s-.81.18-.25-.87l.65-1.22L474.7,4c.63,1.41,1.77,1.62,2.24.4.17-.46.12-.83-.12-.83s-.44-.38-.44-.83c0-.68.5-.77,2.67-.48,1.82.24,2.67.16,2.67-.27s.87-.62,2-.62c1.29,0,1.84.21,1.59.61s0,.43.78,0,1.1-.48.84.22c-.18.46-.54.84-.82.84a.53.53,0,0,0-.49.55c0,1.15,1,.49,1.66-1.1C488,.61,488,.6,489.4,1.34c.7.37.91,1,.72,2-.15.78-.05,1.35.21,1.26a.68.68,0,0,1,.76.38c.16.32-1.15.58-3.21.63-3.19.09-3.54,0-4.09-1.23s-2.63-1.88-2.63-.74c0,.32.25.43.55.25s.41,0,.23.48a.87.87,0,0,1-1.19.49c-.57-.22-.74-.11-.48.29.44.72-1.39,1.25-3.52,1a5.2,5.2,0,0,0-2.39.34c-.9.44-.94.36-.35-.74Zm15.1-2.07c.16-.25-.07-.46-.5-.46s-.65.21-.5.46.38.46.5.46S488.94,3.91,489.1,3.66ZM466.56,5.84c-.17-.27.19-.62.8-.78s1-.58.76-1.17S468,3,468.3,3c.76,0,.63,1.8-.18,2.62S467,6.5,466.56,5.84Zm3.39-1.53c.16-.4.35-.74.44-.74s.29.33.44.74,0,.74-.44.74S469.79,4.71,469.95,4.31Zm2.13-1.55a4.58,4.58,0,0,1,2.28-.83c1.32,0,2.16.82,1.33,1.33a.48.48,0,0,1-.73-.32c-.16-.48-.5-.48-1.39,0-1.7.91-2.76.78-1.5-.18Zm-7.34-.08a1.11,1.11,0,0,1,1.06,0c.44.18.31.31-.33.33s-.91-.11-.72-.29Zm29.11-.22c-.71-.46-.69-.54.14-.54.53,0,1,.24,1,.54,0,.67-.06.67-1.1,0Zm-3-.84c-.26-.69-.12-.73.77-.26,1.28.68,1.4,1.1.32,1.1A1.32,1.32,0,0,1,490.89,1.62Z"/></g></g></svg>